<svg xmlns="http://www.w3.org/2000/svg" viewBox="0 0 766.69 825.1"><defs><style>.cls-1{fill:#e71d02;}.cls-2{fill:#fff;}.cls-3{fill:#ffe3c9;}.cls-4{opacity:0.55;}.cls-5{fill:#e0cbc1;}.cls-6{fill:#fefefd;}.cls-7{fill:#fdb933;}.cls-8{fill:#020100;}.cls-9{fill:#010101;}.cls-10{fill:none;}</style></defs><title>TiaMariaLogo</title><g id="Layer_2" data-name="Layer 2"><g id="Layer_1-2" data-name="Layer 1"><circle class="cls-1" cx="383.35" cy="441.75" r="383.35"/><path class="cls-2" d="M653.53,596.07,600.15,463.53l-29.49-15.21-90-19.52-18.69-49.3,4.87-8.72,1.49-9.63L486,322.49l7.64-34.12,3.62-21.64L499,227.4l6.35-.57,13.92-4.44,2.41-1.84,2.69-5.67,5.81-17.29,1.84-8.22,1-14.46L530.43,159l-9.07-19.84L512,116.81,496.84,88,481.25,66.35l-18.7-20-6.95-5.24-40.25-16.3-18-8.22s-5.24-6.09-34.16-9.21H346.06l-24,5L307.22,19.5l-19,14.68-11.2,15L265.84,66.78l-18,28.06L224.6,126l-28.42,38.46L191,175.34l.85,2.83,3.68,8.08,13.13,40.94,34.21,31,38,15.73,3-4.66,5.35,11,2.52,9.56,3.73,8.36,5.1,5.28,4,3.73,4.39-1.07,2.47-6.79,2.92.2,4.14,20.27,14.68,36.38-4.74,16L278,423.6,232.56,444l-73,21.93-11.92,42.19L129.72,680.6l33.13,101.61,363.26-92Z"/><path class="cls-3" d="M460.31,423.6l-72,27.84-72-42.32s1-28.36,3-31.12,7-39,7-39l-9.75-36.25-11.9,4.5L293,295.34l-7.36-22.42s-10.72-3.35-10.72-5.74-2.76-38.09-2.76-38.09l23.67-32.76s19.7-37,19.83-37.55,63.17-20.5,63.17-20.5l19.91-1.86,30.58,1.86s26.71,2,51.29,22.31,18.09,74.92,18.09,74.92l-5.39,54.69-19.88,56.16-9.38,36.89Z"/><path class="cls-3" d="M646.21,578l-20.62-8.43-36.27,7.33-19.73,9.08-9.75-10.34-8.2,2.14L541.36,586,522,608.32l-61.61,35.94-111-24.58-41.13-3.82-22.09,8,3.68,40.6-10,8.84L228.54,695.8,180.9,773.22l27.24,24,27.17,9.34,69.28-9.34,114.25-17.9L468,760.65l42-1.9,72.26,7.09,64-8.17S674.92,735.6,677.13,735s20.62-21.22,20.62-24.16,3.68-19.84,3.68-22.8V666.66l-42.95-58.34Z"/><g class="cls-4"><path class="cls-5" d="M348,152.15s110.11-28.49,148.37,37.51c0,0,15.76-24.39-2.25-55.81s-47.31-42.12-47.31-42.12,42.48,34.92,43.59,55.39.42,25.61.42,25.61S448.74,107,348,152.15Z"/><path class="cls-5" d="M473,319.74s-2.14-27-17.13-33.39,5.14-22.26,5.14-22.26,26.11-10.7,30-17.55,13.27,0,5.56,24.4S487.59,327,473,319.74Z"/><path class="cls-5" d="M440.43,291.23s-6.87-1.32-5.83,2.54c.19.73,1.78,3,6.21,3.21s5.37-3.68,2.54-5.18S440.43,291.23,440.43,291.23Z"/><path class="cls-5" d="M468.84,208c6.82-15.86-9.28-32.06-25.5-26.12a37.06,37.06,0,0,0-11,6c-9.47,7.95-12.13,24.63-5.31,28.41s32.21-3,36.76-2.65C465.23,213.71,467.32,211.49,468.84,208Z"/><path class="cls-5" d="M348,49.8s14.11,16.67,10.82,26.56S352.47,65.43,348,49.8Z"/><path class="cls-5" d="M409.94,84.3c-11,19.21-14.23-24.25-22.35-57.5,0,0,33.37,38.29,22.35,57.5"/><path class="cls-5" d="M454,90.76C443,110,439.75,66.5,431.63,33.25c0,0,33.37,38.3,22.35,57.51"/><path class="cls-5" d="M484,105.76c-11.29,21.65-13.92-27-21.6-64.07,0,0,32.89,42.42,21.6,64.07"/><path class="cls-5" d="M416.85,144S359,181.41,397.33,222.58s13.24,76.56,13.24,76.56,16.3,2.93,4.66,14.77-2.69,23.69,16.53,30-33.65,9.06-23.94,19.51,8.39,14.63,7,27.18a99.73,99.73,0,0,1-4.84,21.6s-62.41-17.55-78.11-66.89c-9.35-29.4-14.65-39.16-24.08-41.24-4.18-.91-10.32-8.66-10.32-8.66l-4.59-9-3.12-11.81-32.19-57.43,89.63-74.63Z"/><path class="cls-5" d="M202.42,160.53s53.88-17.47,63.48-33.46-1.23,0-1.23,0-6.15-14.8-12.43-14.29c0,0,18.33,4.45,24,5.93s31.24,0,31.24,0l15.75-10.09S312.89,89.1,301.32,89s-30.5-15-23.12-24.65,45,27.36,45,27.36l9.1,9.76-6.39,12.79-9.24,21.9-62.85,28Z"/></g><path d="M426.53,308.77s-4,3-11.27-3.19C415.26,305.58,421.65,310,426.53,308.77Z"/><path d="M423.68,310.07c-2,0-5-.82-8.78-4.07l.68-.88c.06.05,6.24,4.23,10.82,3.12l2.6-.63-2.14,1.61A5.6,5.6,0,0,1,423.68,310.07Z"/><path d="M415.43,301.55s-8.91-4-13.61-3-1.35,2.35-1.35,2.35,8.59,5.42,15.13,1.85C416.23,302.38,415.43,301.55,415.43,301.55Z"/><path d="M410.5,304.5a21.86,21.86,0,0,1-10.32-3.16c-.29-.1-1.5-.66-1.42-1.6s1-1.34,2.94-1.76c4.82-1,13.59,2.9,14,3.06l.17.12a1.76,1.76,0,0,1,.55,1.33,1,1,0,0,1-.52.72A11,11,0,0,1,410.5,304.5Zm-7-5.59a8.05,8.05,0,0,0-1.6.15c-1.87.4-2.07.79-2.07.79a2.51,2.51,0,0,0,.82.51c.17.1,8.48,5.25,14.66,1.88,0,0-.15-.12-.24-.24C414.21,301.61,407.89,298.91,403.53,298.91Z"/><path d="M434.59,303.91s-4.15,3-2.08-.33,7.1-2.95,9.61-3.38,4.47-2.29,4.58-1.31.88,1.31-1.53,2.07S436.33,300.85,434.59,303.91Z"/><path d="M432.17,305.73a.7.7,0,0,1-.54-.21c-.54-.49-.12-1.36.41-2.23,1.79-2.91,5.47-3.22,8.17-3.44.68-.06,1.3-.11,1.81-.2a11.16,11.16,0,0,0,2.88-1c.87-.43,1.45-.71,1.93-.44a.8.8,0,0,1,.42.67,2.47,2.47,0,0,0,.1.43c.32,1.13-.13,1.63-2,2.23a15.29,15.29,0,0,1-3.27.43c-2.65.18-5.95.41-7,2.26l-.15.17C433.42,305.46,432.62,305.73,432.17,305.73Zm8-4.77c-2.56.22-5.68.53-7.15,2.91-.15.25-.25.44-.33.59a10.24,10.24,0,0,0,1.52-.93C435.28,301.74,437.74,301.21,440.13,301Zm6.07-1.74c-.22.08-.55.24-.82.37a11.53,11.53,0,0,1-3.17,1.15c-.31.06-.67.1-1,.14l.83-.06a16.69,16.69,0,0,0,3-.38c1.16-.37,1.33-.57,1.35-.61s0-.16-.07-.26A3.58,3.58,0,0,1,446.2,299.22Z"/><path d="M282.12,261.33s4.75,7.14,5.76,9.48,4.56,6.35,5.53,15.36,7.66,11.32,8.11,14,5.41,4.11,7.44,2.87.46-5.2,1.7-6.33,3.93-3.89,4.68-.47.29-.77-1.63-.66-2.6,2.26-2.6,2.26-.56,2.95-.68,4-2.14,3.24-6.21,1.64c-2.72-1.06-3.26-2.53-3.32-3.4a2,2,0,0,0-.55-1.34c-.87-.89-2.52-2.56-3.93-3.86a17.78,17.78,0,0,1-3.73-8.36C292.55,285.56,292.69,278.88,282.12,261.33Z"/><path d="M306.91,304.65a8,8,0,0,1-2.9-.6c-3-1.19-3.59-2.94-3.66-3.88a1.52,1.52,0,0,0-.39-1c-.85-.87-2.49-2.53-3.92-3.84a18.4,18.4,0,0,1-3.9-8.69c0-.08,0-.2,0-.35-.6-7-6-17.31-10.47-24.69l.94-.59c.19.29,4.79,7.22,5.8,9.57a19.48,19.48,0,0,0,1,1.81,32,32,0,0,1,4.6,13.71c.62,5.7,3.57,8.61,5.73,10.73,1.22,1.21,2.19,2.16,2.37,3.27a3.37,3.37,0,0,0,2.16,2.24c1.58.73,3.5.83,4.45.25s.89-1.9.89-3.21,0-2.4.73-3.06l.25-.23c1-1,2.58-2.38,3.91-2,.71.22,1.19.9,1.43,2,.11.52.19.86.25,1.05a2.71,2.71,0,0,1,.1.36l0,.52-.51.08c-.39.07-.54-.06-.71-.65s-.62-1.37-1.32-1.35c-1.52.09-2.1,1.85-2.1,1.88h0s-.55,2.88-.66,3.91a3,3,0,0,1-1.52,2A4.85,4.85,0,0,1,306.91,304.65Z"/><path d="M420.12,368.93c-6.94,0-21-3.73-29.56-12.51-3-3-7.65-8.06-11.39-12.21-7.7-8.53-7.54-8.75-6.86-9.67l.6-.8,1.06.49c1.62.83,6.64,1.74,11.92,1.74,2.75,0,10.9-2.22,18.09-4.18,6-1.63,11.18-3,13.46-3.27a8.33,8.33,0,0,1,7.19,2.81c4.65-3.2,12.33-1.07,24.64,4.79,6.22,3,9.1,3.62,9.13,3.6l3,.71-2.06,1.4c-.1.08-10.61,7.35-16.88,14.23s-11.79,11.36-20.25,12.73A12.55,12.55,0,0,1,420.12,368.93Zm-44.65-32c3.55,4.18,11.4,13.22,16.26,18.2,9.16,9.39,25.49,13,30.17,12.27,7.82-1.27,10.65-3.39,16.48-8.7a238.69,238.69,0,0,1,21.93-18c-1.68-.51-8.13-2.45-12.08-4.16-15.22-6.55-20.39-6.79-22.82-4.47l-1.08,1-.74-1.29c-.51-.63-2.06-2.29-6.18-1.9a104.34,104.34,0,0,0-12.85,2.84c-7.69,2.09-16.29,4.28-19.35,4.28C381.83,337.05,378.15,337.51,375.47,336.94Z"/><path d="M420.12,369.49c-7.31,0-21.42-3.94-29.95-12.68-3-3-7.65-8.06-11.41-12.23-7.7-8.54-7.88-9-6.89-10.37l.86-1.16,1.47.68c1.6.82,6.66,1.68,11.69,1.68,2.67,0,10.76-2.2,17.9-4.14,6.07-1.65,11.27-3.06,13.59-3.3a8.83,8.83,0,0,1,7.33,2.65c5.2-3.15,13.69-.28,24.8,5a53.57,53.57,0,0,0,8.76,3.51h0l4.46,1.05-3.1,2.11c-.1.07-10.55,7.29-16.78,14.14s-12,11.51-20.57,12.9A12.45,12.45,0,0,1,420.12,369.49Zm-47-35.06-.32.44c-.4.53-.58.77,6.82,9C383.33,348,388,353,391,356c8.3,8.51,22.05,12.34,29.16,12.34a11.42,11.42,0,0,0,2-.14c6.77-1.09,11.66-4.26,16.57-9.05-5.88,5.35-8.87,7.5-16.68,8.76-4.64.76-21.13-2.66-30.66-12.42-4.61-4.73-12.26-13.49-16.28-18.23L374,336.06l1.59.34a27.41,27.41,0,0,0,6.4.19c.92,0,1.84-.07,2.75-.08-5-.12-9.42-1-11-1.79Zm3.76,3.27c4.18,4.88,11,12.7,15.28,17.06,8.88,9.09,25,12.86,29.7,12.1,7.58-1.23,10.31-3.21,16.19-8.56a239.55,239.55,0,0,1,21.09-17.37A115.48,115.48,0,0,1,448,337.07c-16.36-7.05-20.34-6.36-22.22-4.58L424.2,334l-1.09-1.9c-1.34-1.64-3.81-1.8-5.65-1.62a106.87,106.87,0,0,0-12.76,2.82c-6.79,1.85-16.21,4.31-19.49,4.31-1,0-2.11,0-3.18.08A40.89,40.89,0,0,1,376.84,337.7ZM424,331.49l.44.75.44-.42-.34.23-.32-.34ZM418.41,329c-.3,0-.6,0-.91.05a99.9,99.9,0,0,0-11.12,2.64,96,96,0,0,1,11-2.33,9.13,9.13,0,0,1,4.84.67A7.24,7.24,0,0,0,418.41,329Z"/><path d="M301.35,259.54a74.74,74.74,0,0,0-2.45,8.81c-.27,2.29-1.11,6.9,2.45,6.9s4.6,5.86-1.37,5.23-3.45-7.54-3.45-7.54-1.67-9.17-2.09-4.59-1.26,8.36,0,10.67-2.17-7.36-5.24-9c0,0,3.2-.22,3.07,1.63s2.38-8.12,2.38-10.33.74-11.43,4.25-9.75S302.38,256.31,301.35,259.54Z"/><path d="M300.84,281.08a7.33,7.33,0,0,1-.91-.05A4.71,4.71,0,0,1,296.2,279c-1.37-2.2-.47-5.35-.24-6.07a43,43,0,0,0-1-4.32c-.08.91-.18,1.78-.28,2.62a28.41,28.41,0,0,0-.31,5.53,10,10,0,0,1,.87,2.7l-.06.39-.41.09c-.43.08-.65-.31-.83-.63a6.21,6.21,0,0,1-.66-2.26c-1-2.33-2.77-5.67-4.35-6.5l-1.71-.91,1.93-.13a4.73,4.73,0,0,1,3.11.78,61.15,61.15,0,0,0,1.83-8.93c0-.09.12-8.44,2.89-10.18a2.12,2.12,0,0,1,2.14-.07c4.77,2.28,3.25,7,2.75,8.62h0a73.37,73.37,0,0,0-2.43,8.71l-.07.5c-.2,1.64-.51,4.1.45,5.19a1.91,1.91,0,0,0,1.52.58,3.41,3.41,0,0,1,3.06,1.82,3,3,0,0,1-.09,3.09A3.89,3.89,0,0,1,300.84,281.08Zm-6-14.56c.45,0,1.11.32,2.21,6.32l0,.15-.05.14s-1.16,3.27.09,5.26a3.63,3.63,0,0,0,2.9,1.54c1.64.17,2.83-.16,3.37-.95a1.91,1.91,0,0,0,0-2,2.3,2.3,0,0,0-2.08-1.23,2.93,2.93,0,0,1-2.34-1c-1.3-1.46-.95-4.23-.72-6l.06-.5a74.39,74.39,0,0,1,2.48-8.93c1.19-3.75.52-6-2.17-7.29a1,1,0,0,0-1.09,0c-1.65,1-2.37,6.63-2.37,9.25a55.45,55.45,0,0,1-1,5.54.64.64,0,0,1,.56-.35Zm-2.71,5.93c.39.61.77,1.26,1.11,1.92.06-1,.19-2.11.32-3.3.1-.85.2-1.74.29-2.66-.48,2-1,3.77-1.31,4l-.29.15Zm-1.27-1.7a11.29,11.29,0,0,1,.83,1.05v-.18a.62.62,0,0,0-.18-.53A1.54,1.54,0,0,0,290.89,270.75Z"/><path d="M288,234.93s-6.19-6.58-6.28,2.75,2,15,1.8,18.92,2-3.86,1.34-7.8S279.89,231.46,288,234.93Z"/><path d="M283.66,258.32l-.36-.16c-.38-.2-.42-.68-.38-1.59a29,29,0,0,0-.62-5.91,72.22,72.22,0,0,1-1.17-13c0-3.09.71-4.85,2.08-5.39,2.14-.84,4.85,1.95,5.15,2.27l1.82,1.94-2.44-1.06c-1.47-.63-2.54-.69-3.17-.17-1.81,1.5-.49,7.45.29,11,.22,1,.41,1.83.51,2.45.44,2.82-.59,8.83-1.43,9.41Zm.41-25.09a1.39,1.39,0,0,0-.46.08c-.86.34-1.35,1.89-1.37,4.37a70.59,70.59,0,0,0,1.15,12.8c.26,1.53.47,2.87.58,4.07a18.22,18.22,0,0,0,.3-5.67c-.09-.6-.28-1.43-.49-2.38-.94-4.29-2.24-10.16.09-12.09a2.74,2.74,0,0,1,1.8-.6h0A3.43,3.43,0,0,0,284.07,233.23Z"/><path d="M295.85,233.82s8.14.93,8.39,15.78,0,17.58,0,17.58-.7-29.92,4.2-35.84"/><path d="M304.79,267.23l-1.1,0c0-.5-.12-5.48.08-11.65,0-1.73,0-3.7-.08-6-.24-14.19-7.82-15.22-7.9-15.23l.13-1.1c.31,0,6.87.93,8.51,11.73.61-6.13,1.7-11.73,3.59-14l.85.7c-2.79,3.37-3.71,15.07-4,24.12C305,265.13,304.8,267.14,304.79,267.23Z"/><path d="M491.43,307.13s9.43,11.66,3.4,22.74S482,334.72,482,334.72l-1.35,1s3.33,4.95,9.68,1.5,7.86-9.47,7.86-15.71a24.25,24.25,0,0,0-6.68-16.89Z"/><path d="M486,339a7.44,7.44,0,0,1-5.85-3l-.3-.44L482,334l.33.3a6.81,6.81,0,0,0,5.18,1.53c2.51-.43,4.8-2.52,6.81-6.23,5.79-10.64-3.25-22-3.34-22.13l-.13-.16.11-4.07.91,1a24.88,24.88,0,0,1,6.83,17.27c0,5.06-.85,12.24-8.15,16.2A9.55,9.55,0,0,1,486,339Zm-4.6-3.16c.95,1.05,3.85,3.5,8.63.91,5.16-2.8,7.56-7.64,7.56-15.23A23.84,23.84,0,0,0,492,306l0,1c1.13,1.49,9.07,12.63,3.34,23.19-2.19,4-4.76,6.31-7.62,6.79a7.6,7.6,0,0,1-5.74-1.52Z"/><path d="M448.33,282s8.5,11.62,4.69,19.12-5.45,7.5-5.45,7.5,8.48-4.44,9.49-8.24S459.36,292.05,448.33,282Z"/><path d="M447.57,309.2h-2.24l2-1,.72-.39c.7-.61,2.18-2.29,4.5-6.87,3.61-7.12-4.56-18.43-4.64-18.54l-3.21-4.4,4,3.66c11.23,10.19,9.94,15,8.91,18.87-.9,3.38-6.86,7-9,8.23A1.76,1.76,0,0,1,447.57,309.2Zm3.58-23.67c2.25,4.14,4.93,10.82,2.37,15.87a45.31,45.31,0,0,1-2.64,4.61c2.36-1.58,5.13-3.78,5.65-5.74C457.43,296.88,458.43,293.13,451.15,285.53Z"/><path d="M438.87,334.46s5.18,1.24,5.18,4-1.39,3.55-6.08,1.08c-5.3-2.8-13.14.64-13.14.64s0,.52-2.32-4.25-8.11-2.58-11.33-2.58-22,3.23-24,3.14-12.14-.44-12.14-.44l.4,2.81,16.7,18.3,6.8,4.54,14.44,6,7.76.38,6.74-1.32s-2.63-1.9-2.63-7.76,0,4.39-.59,5.56a12.25,12.25,0,0,0-.88,2.79s-1.53-5.26-1.53-7.25.31,5.73-.53,6.34-1.61-3.82-1.61-5.58-.38,5-1.6,5-.08-6.42-.77-6.42-1.14,2.37-1.22,2.75-1.22.54-1.91-.3,0-2.45-1.91-2.45a2.16,2.16,0,0,0-2.22,1.68s.38-1.37-1.37-1.37-12.15-4.25-13.76-5.26-7.93-6.46-.62-7.52,25-1.68,25.29-.92,1.83,1.68,2.74.92,9,0,11,0,9-.31,10.27,0,6-1.37,9.23-3.81-3.81,3.35-12,2.59-17.67-.68-17.67-.68,4.88-2.52,7.31-2.67,10.06.76,12-.46,2.29-2.55,1.72-4.57C444.23,335.92,438.87,334.46,438.87,334.46Z"/><path d="M423.93,369.68l-.45-1.56-2.2.43-8.08-.41-14.44-6-6.9-4.59L375,339.06l-.52-3.64.66,0s10.15.35,12.14.44c.9,0,5.8-.69,10.55-1.4,5.73-.85,11.66-1.74,13.4-1.74a18.92,18.92,0,0,0,2.39-.22c3.15-.4,7.46-1,9.44,3.11,1.18,2.43,1.73,3.43,2,3.83,1.67-.66,8.38-3,13.24-.47,3,1.56,4.17,1.54,4.67,1.24s.59-.84.59-1.83c0-1.53-2.3-2.63-3.86-3.15l-.9-.26.27-1.07c.05,0,.3.07.68.19,1.75.52,5.09,1.67,5.47,3,.68,2.41.11,3.92-2,5.19-1.4.86-4.73.79-8.93.61-1.42-.06-2.64-.12-3.36-.07a17.88,17.88,0,0,0-4.91,1.57c3.37,0,9.64.16,15.28.68a21.66,21.66,0,0,0,12.31-3c.2-.11.64-.36.93.08s-.1.72-.38.94l-.54.4c-3.28,2.5-8.15,4.27-9.69,3.91a63.7,63.7,0,0,0-7.55,0c-1.1,0-2,.05-2.59.05s-1.54-.06-2.72-.12c-2.35-.14-7.24-.41-7.91,0a1.9,1.9,0,0,1-1.74.33,2.9,2.9,0,0,1-1.76-1.28c-1.8-.46-17.45,0-24.79,1.07-1.24.18-2.75.59-3,1.56-.33,1.58,2.62,4.21,3.79,4.95,1.63,1,11.89,5.17,13.47,5.17a2.07,2.07,0,0,1,1.52.51,2.8,2.8,0,0,1,2.07-.82,1.9,1.9,0,0,1,2.07,1.85,1.84,1.84,0,0,0,.27.8,1.06,1.06,0,0,0,1,.4c.44-2.14,1-3,1.73-3H418l.24.21c.34.35.35,1,.28,2.89a16.38,16.38,0,0,0,.08,3.2,15.33,15.33,0,0,0,.86-4c.1-.74.16-1.15.69-1.11s.53.56.53.84a16.63,16.63,0,0,0,.85,4.79,28.31,28.31,0,0,0,.25-4.68,7.34,7.34,0,0,1-.06-.87c0-.38,0-.77.45-.87l.43-.09.19.41s0,.11,0,.29h0s0,.12,0,.26v.06a1.93,1.93,0,0,1,0,.24,32.32,32.32,0,0,0,1,4.84,7.47,7.47,0,0,1,.39-.92c.11-.24.34-1.41.5-6.55,0-.19,0-.36,0-.5v0h0c0-.39.19-.61.56-.59s.47,0,.52.61h0s0,.08,0,.16c0,.35,0,.85,0,1.58,0,5.45,2.38,7.3,2.41,7.32l1,.74-5,1Zm-10.4-2.6,7.67.38,2-.39c-.11-.39-.3-1.06-.5-1.85a2.63,2.63,0,0,1-.61,1.6.8.8,0,0,1-.85.07c-.55-.28-.94-1.39-1.2-2.61-.35,1.33-.79,2-1.48,2a.85.85,0,0,1-.64-.27c-.56-.58-.55-2-.47-4.19,0-.35,0-.75,0-1.12a11.87,11.87,0,0,0-.36,1.44,1,1,0,0,1-.78.73,2.14,2.14,0,0,1-2.11-.76,2.8,2.8,0,0,1-.5-1.29c-.13-.7-.18-1-1-1a1.58,1.58,0,0,0-1.66,1.18.29.29,0,0,1,0,.1l-1.07-.25s0-.05,0-.08a.54.54,0,0,0-.07-.41,1,1,0,0,0-.77-.23c-1.9,0-12.45-4.34-14.05-5.34-1-.61-4.81-3.61-4.29-6.11.27-1.27,1.57-2.09,3.88-2.43,4.41-.64,25.26-2.12,25.88-.57a1.78,1.78,0,0,0,1.1.81.85.85,0,0,0,.78-.12c.71-.59,3.25-.55,8.66-.25,1.15.07,2.13.13,2.66.13s1.47,0,2.56-.05c1.73,0,3.33-.08,4.65-.09-8.05-.73-17.33-.65-17.41-.66l-2.32,0,2.06-1.07c.2-.1,5-2.57,7.53-2.73.78-.05,2,0,3.47.07,2.64.11,6.53.28,8-.31-1.09.05-2.58-.46-4.62-1.53-4.4-2.33-10.81-.07-12.33.52v.07l-.43.12c-.5.1-.64.14-2.93-4.57-1.63-3.35-5.18-2.89-8.31-2.49a20.62,20.62,0,0,1-2.53.23c-1.66,0-7.81.91-13.24,1.72-5.24.78-9.77,1.45-10.75,1.41l-11.48-.42.29,2,16.58,18.18,6.7,4.45Zm11.9-3.36a3.44,3.44,0,0,1-.25,1,10.53,10.53,0,0,0-.7,2.07l2.33-.46A8.91,8.91,0,0,1,425.43,363.72Zm18.16-17.47a4.65,4.65,0,0,1,.56.08,6.07,6.07,0,0,0,2.53-.47A21.06,21.06,0,0,1,443.59,346.25Z"/><path class="cls-6" d="M413.75,445.92c.55-.21,1.16-.35,1.21-1.11l-.32-.33c-.51.21-1.13.27-1.27,1Z"/><path class="cls-6" d="M415,444.81c.42-.12,1.33.24,1.08-.55-.15-.5-1-.15-1.4.23C414.75,444.59,414.86,444.7,415,444.81Z"/><path class="cls-6" d="M600.55,552.18l.66-.6c-.47-.53-.75-.12-1.06.21Z"/><path class="cls-6" d="M590.28,568.82c0,.32-.17.8,0,.91.38.3.5-.12.62-.41Z"/><polygon class="cls-7" points="538.55 592.97 538.5 593.09 538.52 592.92 538.55 592.97"/><path class="cls-8" d="M570.66,554.9c8-8.82,13.54-18.27,15.25-29.65a193.3,193.3,0,0,0,2-43.72,17.37,17.37,0,0,0-.6-2.08C581.63,505.05,576.21,529.69,570.66,554.9Z"/><path class="cls-8" d="M469.92,509.32c-7.28,0-12.76,7.19-12.28,14.67.34,5.31,3.46,9.55,7.55,10.27s8.66-1.9,10.88-6.65,2.48-9.29-.06-13.88C474.46,510.94,472.11,509.3,469.92,509.32Z"/><path class="cls-8" d="M356.61,532.52a13.38,13.38,0,0,0-3.91-9.47c-2.41-2.56-5.4-4.15-9-2.92-4.43,1.53-6.33,5.3-6.89,9.54a14.13,14.13,0,0,0,4.6,12.43c5,4.72,11.42,3.18,14-3.16A20.05,20.05,0,0,0,356.61,532.52Z"/><path class="cls-9" d="M567.06,469.83c-.93,14.28,1.47,28,1.52,41.75,1.69-8.91,5.77-17.18,6.15-26.36C575,478.76,573.13,473.61,567.06,469.83Z"/><path class="cls-8" d="M493.36,498c-.86,24.93,4.94,49,9.81,72.31C501.12,546.54,499.24,522,493.36,498Z"/><path d="M581.43,562.45a3.15,3.15,0,0,0-.36.87c0,.14.27.31.42.46a5.42,5.42,0,0,0,.47-.89C582,562.82,581.67,562.65,581.43,562.45Z"/><path d="M583.46,561.9l.93-.46-.56-.66-.81.69Z"/><path d="M583,561.47c-.32.2-1,.35-.48.86s.69-.1.92-.43Z"/><path class="cls-8" d="M190.75,473.48a134.73,134.73,0,0,1,21,15.11c14.37,12.55,28.27,25.58,40.76,40.05a10.09,10.09,0,0,0,1.49,1.63,1.44,1.44,0,0,0,1.31.08c.52-.3.26-.88,0-1.32-6.06-11.45-11.34-23.36-19.45-33.63-7.82-9.9-18.82-14.59-30.27-18.52A72,72,0,0,0,190.75,473.48Z"/><path class="cls-9" d="M173.63,648c22.52-13.62,48.17-18.61,73.82-26.58C226.26,616.28,184.73,631.39,173.63,648Z"/><path class="cls-8" d="M218.67,507.4c-8.18-7.33-16.53-14.27-25.88-19.88-7.45-4.47-15.25-5.3-24.44-2.14C186,492.22,202.7,499,218.67,507.4Z"/><path class="cls-8" d="M225.79,470.75c-.63.46-.17.81.14,1.12,12.47,12.29,23,26.26,34.66,39.27.79.89,1.38,2.07,3.52,2.39-10.21-17-23.52-30.56-38.38-42.7Z"/><path class="cls-9" d="M239.56,472.67l-3.24-6.91c13.48,5.68,23.78,15,35.86,23.28-6.72-9.46-29-23.7-39.62-25.51l6.47,9.65A6.38,6.38,0,0,1,239.56,472.67Z"/><path class="cls-8" d="M240.93,477.12a8.76,8.76,0,0,1,2.41,3.74l0,.08c.35-2-.07-3.54-2.45-3.8Z"/><path class="cls-8" d="M240.85,477.14c1.33-2-.76-3-1.29-4.47a6.38,6.38,0,0,0-.53.51c.64,1.31,1.29,2.61,1.91,3.93Z"/><path class="cls-8" d="M248.12,487.94a3.86,3.86,0,0,0-1.53-2.95l-.08.08a3.6,3.6,0,0,0,1.55,2.94Z"/><path d="M174.07,624.64a1.54,1.54,0,0,0-.59,0,2.35,2.35,0,0,0-.56.39,3.71,3.71,0,0,0,.48-.1A6.88,6.88,0,0,0,174.07,624.64Z"/><path class="cls-8" d="M249.66,490l-.53-.26c0,.11-.09.29,0,.32a2.81,2.81,0,0,0,.52.26Z"/><path class="cls-8" d="M245.91,484.18c-.15-.46-.3-.92-.46-1.37l-.29.05,0,.3a1,1,0,0,0,.7,1.12Z"/><path class="cls-8" d="M245.45,482.81c-.21-.21-.6-.62-.62-.61-.56.5.18.63.29,1l0-.3Z"/><path class="cls-8" d="M245.82,484.28l.69.79.08-.08-.68-.81Z"/><path class="cls-8" d="M248.06,488l.4.38-.34-.45Z"/><path d="M223.19,469.88l.16-.45-.16.4Z"/><path d="M223.19,469.83l.95-.15-.16-.33-.79.53Z"/><path class="cls-8" d="M225.73,470.83l-.65-.56-.07.56.78-.08Z"/><path class="cls-8" d="M243.34,480.86l.69.18-.16-.42-.57.31Z"/><path class="cls-9" d="M559,725.61c8.93,1.33,17.84,2.84,26.79,4,15.88,2,31.74,3.54,47.79,1.47,9.23-1.19,15.61-6.82,22.17-12.94L639.89,720a383.37,383.37,0,0,1-91.59,0c-3.42-.42-6.92-.12-10.25-1.25-1.23-.11-2.6.63-3.66-.57a10.61,10.61,0,0,1-4.53-1l-3.4-.61c-2.42.2-4.75-1.4-7.23-.35,5.91,2.34,12.45,2.21,18.23,4.92,6.25.86,12.35,2.38,18.47,3.84l1.17.15Z"/><path d="M568,740.5c9.25.81,18.42,2.43,27.75,2.38,6,0,12,.08,17.92-1.57-7.57-.46-15.15-.84-22.71-1.41-13.83-1-27.66-2.17-41.19-5.53l-9.16-2.2c-5-.57-9.62-2.68-14.54-3.58,8.87,3.37,17.81,6.47,27.18,8.22,2.77.52,5.44,1.55,8.16,2.35Z"/><path class="cls-9" d="M363.94,752.4c2.05-2,5.15-2,7.21-3.58l-6.5.72c-3.1,1.37-6.46,1.43-9.72,2l-5.91.78a79.22,79.22,0,0,1-17.12,3.22,3.07,3.07,0,0,1-2.45.58c-3.41,1.72-7.22,1.35-10.83,2l-.86.21c-1.73.83-3.45,1.65-5.24.16l.06-.09c.1.94-.77.78-1.23,1.08-15.67,3.6-31.49,6.45-47.31,9.32-3.82.69-7.66,1.3-11.46,2.2,11.89,3.82,23.9,3.63,35.87,1.15,12.34-2.55,24.59-5.55,36.88-8.36,3.71-1.8,7.81-2.08,11.74-3,4.68-1.46,9.25-3.34,14.18-3.9A25.32,25.32,0,0,1,362,753.09l0,0C362.24,751.87,363.21,752.45,363.94,752.4Z"/><path class="cls-6" d="M363.94,752.4c-.73.05-1.7-.53-2,.73A1.71,1.71,0,0,0,363.94,752.4Z"/><path class="cls-6" d="M311.35,759.49c.46-.3,1.33-.14,1.23-1.08A1.33,1.33,0,0,0,311.35,759.49Z"/><path d="M371.27,645,395,654.33l.38-1C388.49,647.62,380,646,371.27,645Z"/><path class="cls-9" d="M578.8,626.45a227.22,227.22,0,0,0,23.2-7q14-5,27.94-10c4.21-1.53,8.29-3.39,11.39-6.75,1-1.09,2.79-2,1.87-4-.84-1.83-2.59-1.59-4.19-1.58a21.57,21.57,0,0,0-8.72,1.55c-17.2,7.61-34.58,14.86-50.11,25.71C579.62,624.66,578.8,624.87,578.8,626.45Z"/><path class="cls-10" d="M546.48,584.65a17.38,17.38,0,0,1,9.34-4.18,2.22,2.22,0,0,1,2.78,2.2c.08,1.05,1.64,2.56-.27,3.17-6.67,2.1-12.93,5.34-19.73,7.06A49.64,49.64,0,0,1,546.48,584.65Z"/><path class="cls-10" d="M625.2,556.75a99.53,99.53,0,0,0-34.33,12.57c-.12.29-.24.71-.62.41-.14-.11,0-.59,0-.91q11.33-12.26,22.63-24.53c.8-.87,2.06-1.74.87-3.11-.94-1.1-2-.55-3,.07a231.31,231.31,0,0,0-26.95,19.53l.56.66,15.76-9.65c.31-.33.59-.74,1.06-.21l-.66.6c-8,9.09-16.09,18.16-24.08,27.3a7.13,7.13,0,0,1-5.31,2.26c-1.73.06-1.54-2.25-2.22-3.48-3.91-7.07-5.75-7.89-13.73-6.36A31,31,0,0,0,544.53,576a73.81,73.81,0,0,0-20.29,18.9c-2.51,3.37-4,7.49-7.14,10.33-9.17,8.2-20.17,13.28-31.58,18.29.24-2.79.68-5.35.1-7.87-.88-3.87-2.75-7-6.9-7.9-3.92-.87-7,.78-9.44,3.8a15.76,15.76,0,0,0-3.43,9.26,13.23,13.23,0,0,0,4.28,10.6c-2.36,1.4-4.69,2.42-6.56,4-3.2,2.7-6.55,2.66-10.4,1.92-7.06-1.36-14.22-2.15-21.3-3.42-19.88-3.57-40-5.92-59.56-11.1-5.21-1.38-10.09-2.48-12.64-8.54-2.05-4.86-8.82-6.81-11.89-3.76-3.46,3.43-6.44,2.09-10,1.32-1.89-.41-2.28-1.27-2.53-2.93q-7.35-49.49-15.84-98.79c-.27-1.57-.12-2.21,1.52-2.49q5.47-.93,10.9-2.13c14.17-3.14,28.13-7,41.92-11.48,14-4.53,28.19-8.65,41.13-15.89,16.83-9.41,32.6-20.38,46.52-33.78a7.92,7.92,0,0,1,7.74-2.43c21.89,3.54,43.81,6.84,65.69,10.41,10,1.64,20.15,2.93,29.87,6a22.25,22.25,0,0,0,10.9,1c4-.73,7.59.73,10.64,3.34a29.46,29.46,0,0,1,8.23,11.77q8.13,20.37,16.22,40.75c5.08,12.79,10.18,25.56,15.19,38.37C626.28,554.57,628.14,556.26,625.2,556.75Z"/><path class="cls-10" d="M401.24,444c-.74,1.63-1.64,1.9-3.18,1.39-15.08-5-30-10.44-43.77-18.57-9.68-5.73-16.47-14.58-24.14-22.48a3.68,3.68,0,0,1-.94-2.8l17.57,15.83Z"/><path class="cls-10" d="M214.71,777.63c1,.11,2,.53,2.68-.59.51-.89,0-1.61-.52-2.36a71.58,71.58,0,0,0-10-12.48c-1.93-1.84-2.32-3.33-1.62-5.78a46.94,46.94,0,0,1,6.34-14.19c8.48-12.18,18.13-23.55,29.66-32.71,15.28-12.14,33.44-15,52.51-11.74,7.77,1.31,14.62,5.43,22.08,7.73,9.26,2.87,18.43,5,28.39,4.7,17-.56,32.87,3.22,46.52,14.42,7.76,6.37,15.89,12.29,23.42,19a91,91,0,0,1,9.34,8.78c-.75.35-1.27.65-1.82.84-12,4.06-23.94,8.16-35.93,12.15-35.06,11.66-70.12,23.31-106.56,30-13.61,2.5-27.26,3.47-41.09,1.55-14.29-2-24.52-10.65-34.42-20-1.2-1.14-1.18-2.31-.5-4.11C206.94,775.32,210.55,777.16,214.71,777.63Z"/><path class="cls-10" d="M147.16,520.12c2.12-14.35,8.08-27.52,14.1-40.6,1.31-2.83,3.13-5.67,5.84-7.1,11.38-6,22.68-12.15,35.66-14.4,12-2.07,24.07-3.82,35.64-7.55,23-7.43,45.68-15.66,67.09-27,1.16-.61,2-1.09,3.18.13,7.64,7.75,16.62,13.94,24.87,21,10.48,9,21.64,17,34.12,23.05a6.19,6.19,0,0,0,6.19-.12c13.51-6.75,26.62-14.2,39.52-22,.14-.69.76-.75,1.27-.95.45-.38,1.25-.73,1.4-.23.25.79-.66.43-1.08.55,0,.76-.66.9-1.21,1.11-8.67,8.2-18.4,15-28.33,21.54-22.21,14.61-46.21,25.83-70.4,36.63-2.56,1.14-3.51,2.39-3.06,5.31,1.61,10.67,3,21.38,4.36,32.08,2.86,21.64,5.67,43.3,8.59,64.93.32,2.35.14,3.46-2.65,3a73.44,73.44,0,0,0-34.61,1.51c-1.28.38-1.86.29-2.45-1.16-6.92-17-15.85-33-24.27-49.3-4.41-8.52-9-16.94-13.54-25.41,6.28,23.84,11.79,47.78,17.38,72.13-1-.43-1.51-.59-1.95-.81-30.84-15.17-62.9-16.27-95.73-8.23-1.24.31-3.26.16-3.26,1.82,0,1.88,2.07,1.31,3.28,1.51,14.91,2.47,29.85,4.85,44.77,7.3,2.94.48,5.85,1.12,8.77,1.69-16.16,1.57-31.43,5.42-45.82,13.4.48.19.62.3.7.27.81-.28,1.61-.57,2.4-.88,17.54-6.92,35.61-10.49,54.55-8.74,8.77.81,17.48,2.26,26.31,2.36,1.09,0,2.87.73,3.09-1.05s-1.6-1.6-2.73-1.74c-22.28-2.75-44.28-7.25-66.4-11-6.79-1.16-13.6-2.24-21.29-3.49A100,100,0,0,1,190.25,596c25.72-2.2,50.12,2.33,72.95,14.7a6.2,6.2,0,0,1,3.51,4.71c1,5.11,2.29,10.17,3.4,15.26a101.23,101.23,0,0,1,1.6,32.2c-.2,1.89-.33,3.77-3,3.86-7.12.24-13.58,2.77-19.71,6.12-25.33,13.86-46.16,32.86-63.42,55.89A109.74,109.74,0,0,0,167,766.58c-5.89-9.08-12.25-17.14-15.9-26.87-3.24-8.62-2.57-16.62,2.59-24.41,9-13.6,20.5-24.84,33-35.1,16.77-13.77,36-23.7,54.69-34.41,4.67-2.68,9.28-5.45,13.92-8.17l-.57-1c-43.67,5.27-79.93,25.07-110.07,57.2-3.64-17.68-4.06-35.28-4.16-52.9-.16-31.06,1.89-62,4.37-92.94C145.61,538.66,145.8,529.31,147.16,520.12Z"/><path class="cls-10" d="M351.52,695.53c-14.23-.26-26.67-4.58-38.49-11.88-5.38-3.32-10.52-7-15.78-10.49a6.2,6.2,0,0,1-3.2-5.57,219.56,219.56,0,0,0-3.42-32.15c-.64-3.41.05-5.11,3.58-6.16,4.86-1.45,9.55-3.48,14.25-5.41a27.4,27.4,0,0,1,13.1-2c15.51,1.46,30.35,5.75,45,10.91,2.37.74,4.71,1.56,7.1,2.2,9.55,2.57,18.19,7.88,28.18,9.2,5.76.76,11.49,1.9,17.22,2.93,35.45,6.42,71,11.56,107.18,7.84,9.84-1.23,19.69-2.31,29.5-3.74,20.94-3.07,41.76-7.39,63.14-4.52A33.16,33.16,0,0,0,631,645.61c19.37-4.77,42.54,2,54.28,21.37,6.71,11.09,8.41,33-4.81,43.67-.83.67-1.14,2.18-3,1.49-4.33-1.66-5.66-1.15-7.88,3a52.16,52.16,0,0,1-5.67,9.12c-1.17,1.38-3.76,2.59-2.56,4.81s3.58.84,5.48.87c.16,0,.32.3.58.56-1.75,6.26-6.06,10.24-11.82,12.91-6,2.78-12.36,4.41-18.63,6.34-17.86,5.51-36,9.15-54.84,8.69a3.34,3.34,0,0,1-2.88-.1,15.12,15.12,0,0,1-5.49-.1c-.94-.17-2,.58-2.82-.46-.19.25-.4.73-.56.71a277.28,277.28,0,0,1-38.07-6.39c-24.5-6.19-47.72-15.77-70.7-26.08-20-9-40.37-17.17-62-21.64C383.7,701,367.92,695.84,351.52,695.53Z"/><path class="cls-10" d="M586.57,577.6a17.65,17.65,0,0,1,4.61-4.37,75,75,0,0,1,31.35-11.64c7.75-1.09,5.58-2.26,8.56,5.24.07.18-.11.45-.14.53C615.34,566.56,601.47,573.3,586.57,577.6Z"/><path class="cls-10" d="M636.48,631.17c-4.42,5.28-9.83,7-16.47,6-3.91-.57-7.88-.77-11.83-1-.81-.05-1.43.11-1.64-1.09,4-1.17,8-2.28,12-3.53s7.75-2.64,10.85-5.5c.94-.87,1.73-1.8,1.38-3.22-.41-1.69-1.85-1.91-3.2-2a24.9,24.9,0,0,0-11.53,2.44,199,199,0,0,0-20.54,10.44,11.15,11.15,0,0,1-6,1.56c-8.2,0-16.35.62-24.51,1.35-8.46.76-16.85,2.27-25.36,2.41-17.91,2.43-35.87,3.51-54,2,.4-1.53,1.62-1.78,2.46-2.34a328.8,328.8,0,0,0,27.22-19.37,145.14,145.14,0,0,1,35.11-20.53c14.49-6.13,29.54-10.68,44.25-16.16,4.17-1.8,8.22-4.06,12.55-5.3,5.61-1.6,11.39-1.65,16.8,1.27,2.15.76,4,1.77,4.54,4.19a301.7,301.7,0,0,0-48.89,16.71c-3,1.34-6,3.06-8,6.47a24.56,24.56,0,0,0,12.42-1.13c14.14-4.78,28.73-7.57,43.37-10.16,1.95-.37,3.88-.86,5.84-1.07,4-.42,8.34-1.39,11.92.89,6.55,4.18,10.55,16.69,3,24.12C644.14,622.7,640.14,626.81,636.48,631.17Z"/><path d="M538.55,593l0,.12,0-.16.08,0Z"/><path class="cls-9" d="M712.57,671.6c-3.08-15-10.61-27.6-19.09-39.86-1.06-1.53-2.13-3-3.19-4.57-4.21-4.53-8-9.43-12.6-13.62-6.63-6-11.19-13.73-14.85-21.62a394.45,394.45,0,0,1-16.1-40c-10.6-31.47-25.06-61.22-39.77-90.84-6.77-13.64-19-20.75-33.34-24.65-2.88-.78-5.67.53-8.48-.16-10.59-2.61-21.36-4.36-32.09-6.32-14.74-2.7-29.27-6.25-43.69-10.23-6.62-3.73-11.54-9.67-15.19-16.25l-5.45-25,4.33-7.77,1.52-9.85,17.59-38.49,7.76-34.68,3.68-21.94.1-2.14a12.21,12.21,0,0,0,2.15-5.18c0-.12,1.5-11.72,2.23-14.65.56-2.23,4.44-4.94,5.62-5.72a2.05,2.05,0,0,0,.91-1.72v-7.42a2.16,2.16,0,0,0-.17-.8l8.32-2.65,4.23-3.24,3.27-6.87,6.05-17.9,2-8.77,1.15-15.92-2.76-17.23L527.4,135.2,518,112.81,502.67,83.59l-16-22.33L467.52,40.73l-8.23-6.32L418.48,17.89l-17.13-7.82c-3.09-2.51-12.06-7.38-36.62-10L346.44,0,321.26,5.22l-16,7.68L285.19,28.41,273.55,44,244.23,89.83l-23.14,31-28.41,38.46L186.05,173l1.46,4.87,3.81,8.49,13.48,42,7.64,6.92q1.13,1.18,2.34,2.4c.95,1.37,1.6,2.27,1.71,2.42l4.18,3.06c2,1.77,4.12,3.53,6.27,5.25l13.88,12.59,7.54,3.12c6.64,4.5,11.33,7.39,11.33,7.39s3.08.19,7.08.23L284,278.91l.18-.28.84,1.71,2.38,9,4.42,10.09,5.78,6,1.43,1.32c-3.15,3.4-5.19,8.78-5.19,14.85,0,10.24,5.81,18.58,12.94,18.58,5.11,0,9.52-4.27,11.63-10.45l3.57,8.92-14.39,45.07h0c-1.47,4.07-3.47,8-4.82,12.09-1.54,4.69-3.72,8.39-8.88,9.91-2.44.72-4.54,2.52-6.83,3.75-6.44,3.44-12.34,7.94-19.39,10.17-16.32,5.14-32.72,9.93-49.59,13-14.31,2.58-28,7.61-42.15,10.81-10.32,2.34-17.69,8.35-22.95,17.42-5.06,8.7-9.65,17.53-12.34,27.32-3.4,12.38-7.7,24.52-9.24,37.37-.78,6.49-1.26,13-2.43,19.48a514.21,514.21,0,0,0-8.13,91.78c0,5.31-.06,10.63-.09,15.94l2.88,32.82q1.85,11.05,3.67,22.13c1.46,4.19,2.49,8.15.72,12.79-2.51,6.59-1.66,13.41.91,20,4.23,10.83,10.76,20.32,17.45,29.69,4.15,5.82,8.93,11.17,13.52,16.67,7,8.32,15.94,12.63,26.4,13.83a26.41,26.41,0,0,1,13.91,6c16.41,13,35.69,15.73,55.84,15,26-.89,50.63-7.87,74.78-16.66a65.75,65.75,0,0,1,28.51-3.79c55.29,4.25,108.38-5.4,159.33-27.08,3.2-1.37,6.1-1.1,9.29-.74,18.09,2.06,36,5.84,54.23,6.31,27,.7,52.91-4.88,78.36-13.39,7.28-2.44,14.77-4.35,21.08-8.87,12.48-8.93,20.76-21.22,26.44-35.21A85.87,85.87,0,0,0,712.57,671.6Zm-67.36-77c6.55,4.18,10.55,16.69,3,24.12-4.07,4-8.07,8.1-11.73,12.46-4.42,5.28-9.83,7-16.47,6-3.91-.57-7.88-.77-11.83-1-.81-.05-1.43.11-1.64-1.09,4-1.17,8-2.28,12-3.53s7.75-2.64,10.85-5.5c.94-.87,1.73-1.8,1.38-3.22-.41-1.69-1.85-1.91-3.2-2a24.9,24.9,0,0,0-11.53,2.44,199,199,0,0,0-20.54,10.44,11.15,11.15,0,0,1-6,1.56c-8.2,0-16.35.62-24.51,1.35-8.46.76-16.85,2.27-25.36,2.41-17.91,2.43-35.87,3.51-54,2,.4-1.53,1.62-1.78,2.46-2.34a328.8,328.8,0,0,0,27.22-19.37,145.14,145.14,0,0,1,35.11-20.53c14.49-6.13,29.54-10.68,44.25-16.16,4.17-1.8,8.22-4.06,12.55-5.3,5.61-1.6,11.39-1.65,16.8,1.27,2.15.76,4,1.77,4.54,4.19a301.7,301.7,0,0,0-48.89,16.71c-3,1.34-6,3.06-8,6.47a24.56,24.56,0,0,0,12.42-1.13c14.14-4.78,28.73-7.57,43.37-10.16,1.95-.37,3.88-.86,5.84-1.07C637.31,593.28,641.63,592.31,645.21,594.59Zm-106.71-1.5,0-.16.08,0a50,50,0,0,1,7.88-8.25,17.38,17.38,0,0,1,9.34-4.18,2.22,2.22,0,0,1,2.78,2.2c.08,1.05,1.64,2.56-.27,3.17-6.67,2.1-12.93,5.34-19.73,7.06l-.05.07Zm92.59-26.26c.07.18-.11.45-.14.53-15.61-.8-29.48,5.94-44.38,10.24a17.65,17.65,0,0,1,4.61-4.37,75,75,0,0,1,31.35-11.64C630.28,560.5,628.11,559.33,631.09,566.83ZM534.84,452.34c10,1.64,20.15,2.93,29.87,6a22.25,22.25,0,0,0,10.9,1c4-.73,7.59.73,10.64,3.34a29.56,29.56,0,0,1,8.23,11.77q8.13,20.37,16.22,40.75c5.08,12.79,10.18,25.56,15.19,38.37.39,1,2.25,2.71-.69,3.2a99.53,99.53,0,0,0-34.33,12.57c-.12.29-.24.71-.62.41-.14-.11,0-.59,0-.91q11.33-12.26,22.63-24.53c.8-.87,2.06-1.74.87-3.11-.94-1.1-2-.55-3,.07a231.31,231.31,0,0,0-26.95,19.53l.56.66,15.76-9.65c.31-.33.59-.74,1.06-.21l-.66.6c-8,9.09-16.09,18.16-24.08,27.3a7.13,7.13,0,0,1-5.31,2.26c-1.73.06-1.54-2.25-2.22-3.48-3.91-7.07-5.75-7.89-13.73-6.36A31,31,0,0,0,544.53,576a73.81,73.81,0,0,0-20.29,18.9c-2.51,3.37-4,7.49-7.14,10.33-9.17,8.2-20.17,13.28-31.58,18.29.24-2.79.68-5.35.1-7.87-.88-3.87-2.75-7-6.9-7.9-3.93-.87-7,.78-9.44,3.8a15.76,15.76,0,0,0-3.43,9.26,13.23,13.23,0,0,0,4.28,10.6c-2.36,1.4-4.69,2.42-6.56,4-3.2,2.7-6.55,2.66-10.4,1.92-7.06-1.36-14.22-2.15-21.3-3.42-19.87-3.57-40-5.92-59.56-11.1-5.21-1.38-10.09-2.48-12.64-8.54-2.05-4.86-8.82-6.81-11.89-3.76-3.46,3.43-6.44,2.09-10,1.32-1.89-.41-2.28-1.27-2.53-2.93q-7.35-49.49-15.84-98.79c-.27-1.57-.12-2.2,1.52-2.49q5.47-.93,10.9-2.14c14.17-3.13,28.13-7,41.92-11.47,14-4.53,28.19-8.65,41.13-15.89,16.83-9.41,32.6-20.38,46.52-33.78a7.92,7.92,0,0,1,7.74-2.43C491,445.47,513,448.77,534.84,452.34ZM401.24,444c-.74,1.63-1.64,1.9-3.18,1.39-15.08-5-30-10.44-43.77-18.57-9.68-5.73-16.47-14.58-24.14-22.48a3.68,3.68,0,0,1-.94-2.8h0l2.55-24.29,2.77-4.72,2.93-9.91c11.85,16.81,25.41,28.68,31.78,32.5,2.83,1.7,27.92,16.61,36.29,16.86,1.57,0,3.08.07,4.54.07,17,0,27.39-3.49,39.69-19.3h0c.06-.09,1.9-2.61,4.64-6.6l5.9,30.79Zm91.42-179.74-.09.57-.6.19-2.49.8c-9.11,2.93-33.12,1.54-37.42.74s-7.87-2.43-10.89-7.63-4.51-16.82-2.76-22.33c1.27-4,6.42-5,9.12-5.24a25.14,25.14,0,0,0-5,3.83l-3.42,3.42,4.1-2.56a62,62,0,0,1,11.65-5.33l16.86-1.65c.18,0,.36,0,.54.1A16.86,16.86,0,0,1,483,237.83c.62.7,1.15,1.06,1.59,1.06a.77.77,0,0,0,.39-.11c.55-.33.65-1.07-.43-3.87-.93-2.39-3.32-4.33-5.82-5.78,4.18.2,10.26.46,15.33.59l.13.25Zm5.68-44.15-3.73.33-.21,4.7c-20.2-1.73-46,1.39-51,2.66-5.33,1.35-28.61,0-28.79,0h0c-45.11-11.86-76.8-1.76-78.75-1.12H323.94l-19.61-7.62c-.07-.45-.12-.91-.16-1.39l2.94-18.54a172.21,172.21,0,0,1,7.09-19.32c1.34-1.82,2.73-3.56,4.15-5.24,10.77-9.39,15.85-14.09,18.22-16.49A106.48,106.48,0,0,1,369.34,143l25.2-4.28c3.52-.26,7-.41,10.56-.41A154.12,154.12,0,0,1,439,142.12l12.78,3.5c3.14,1,6.22,2.09,9.17,3.28C500.52,164.91,499.05,210.93,498.34,220.13Zm-102.46,17a3.49,3.49,0,0,0-.31-.38l-.19-.26c-3-4.05-5.15-6.78-6.8-8.61,5.1.51,10.61,1.29,16.62,2.47,4.3.84,4.68,8,4.89,11.88.22,4-2.08,13.47-6.19,19.17-3.94,5.48-16.16,6.11-16.27,6.12-38.12,1.29-42-2.69-43.66-4.39a3.86,3.86,0,0,0-.93-.78c-1.8-1-6.28-9.37-5.72-22.29.41-9.52,7.69-11.37,14.75-11.93l1-.08c5.78-.46,12.2-1,19.66-1,3,0,6.12.09,9.44.29,5.08,3.82,11.19,8.58,12.61,10.15.33.44.52.64.72.64a.55.55,0,0,0,.32-.14C396,237.91,396.19,237.65,395.88,237.16ZM305,232.23l.7.22c.31,1.9.48,3.08.56,3.66a2.23,2.23,0,0,1-.68.09c-1.27,0-3.89-.59-9.18-3.36l-1.63-.86a49.92,49.92,0,0,0-8.43-3.89l3.83.76,15,5.81ZM500.42,126.88,498.77,115a94.54,94.54,0,0,0,3.3,9.77c4.53,11.22,3.65,33,3.64,33.24l0,1,.87-.5c7.77-4.5,11.24-9.95,12.69-14.6l2.55,5.56c-2.93,4.57-5.45,11.79-7.73,18.35-1.9,5.47-3.7,10.65-5.37,13.14a20.76,20.76,0,0,1-5.61,5.3c-.86.58-1.21.83-1,1.32a.48.48,0,0,0,.53.37,19.19,19.19,0,0,0,2.91-.59c1-.22,2.18-.51,3.74-.85,8.52-1.92,14.91-12.21,18.21-18.81l.9,5.61-.92,13.4-1.69,7.53-5.61,16.71-2,4.16-.59.45-12.42,4-4.37.39,0-1.85-1.11,0c0,.05,0,.77-.07,2l-.21,0c.68-9.82,1.66-56.08-38.06-72.15-.78-.32-1.6-.6-2.4-.9l.18-.48c-17.41-8.11-43.17-12.82-65.65-12-9.05.33-18.53,1.08-28.18,2.23-26.94,3.2-33.2-10.51-34.54-19-1.09-6.89-.06-8.87.65-9.44a1.23,1.23,0,0,1,1.14-.2l.21.09.21-.08c.72-.28,72.58-27.56,114.54-11.24s51.7,57.75,51.8,58.17l1.11,4.94,0-5.07c0-2.2-1.05-5.31-2.06-8.31-1.29-3.87-2.76-8.26-1.18-8.84C500.94,136.41,500.49,127.88,500.42,126.88ZM482.4,111a.93.93,0,0,1,.37-.65c2.94-2,1.92-15.37.52-30.14-.2-2.13-.38-4-.48-5.36l10.27,14.28,1.56,3,.59,4.91h-.08c0,.27,1.94,26.52,1.94,31.93a4.16,4.16,0,0,1-1.2,3.39,3.41,3.41,0,0,1-2.45.62C490,127.89,481.68,114.76,482.4,111ZM453.8,44.1l6,4.52,2.69,2.88c3.4,5.7,13.21,32.36,16.56,43.33,2.64,8.64.83,13.89-.68,14.65-.22.12-.56.2-.93-.29-1.87-2.5-22-14-25-15.77.36-1.75,1.95-9.33,4.76-22.53,2.21-10.39-2.75-21.63-6.29-28ZM410.33,26.31c7.15,10.2,20.12,27.78,28.55,33.93,10.32,7.53,9.5,27.15,9.2,31.4-8-3.89-30.86-6.44-34.61-6.84,0-2.08-.21-10.57-.21-19.61,0-10.35-9.47-32.32-16-43.55-.4-.69-.8-1.29-1.2-1.86ZM282.52,50.47l10.62-14.25,17.93-13.87,13.75-6.59L347.57,11h16.27c12.76,1.4,20.47,3.37,25,4.95a5.81,5.81,0,0,0-2.5,2.27c-.16.18-4,4.48-3.24,9,.38,2.3,1.88,4.2,4.48,5.66,8.74,4.91,22,31,22,35.13,0,3.59-1.35,13.63-1.68,16-2-.13-9.54-.32-23.24,2.68-3.69.81-6.49.28-8.31-1.57-4.53-4.58-2-15.8-2-15.91l0-.13,0-.12C374,67.61,366,34.9,356.78,32.17c-1.92-.57-3.4-.34-4.39.69-3.2,3.33.4,14.13.55,14.58l.06.18.16.11c.1.06,10.11,6.83,14.37,17s-2.91,22.6-5.09,24.37c-2.35,1.91-26.06,11.11-30.2,8.5-1.34-.85-4.62-5.2-8.77-10.71-9.64-12.78-24.2-32.1-34.48-34.32-3.4-.74-6.09-.62-8,.36ZM260,270.48c-.54-.34-2-1.23-4-2.56l4.88,2.6Zm-8.77-157.59c.1,0,9.73-.38,15.65,6.9,2.52,3.11,4.89,4.89,7,5.28-5,3.15-16.41,10.7-23.77,18.06-9,9-28.81,12.19-42,13.81L230,127.45,253.2,96.27,277.44,58.4a15.86,15.86,0,0,0,.51,5.89c.39.69,9.53,16.85,20.12,17.81,10.23.93,27.05,17.27,28.43,20.51a.76.76,0,0,1,0,.66c-.71,1.61-5.36,3.25-9.1,4.57a45.3,45.3,0,0,0-5.61,2.23l-1.87,1c-8.69,4.74-19.51,10.64-33.38,5-15.13-6.15-25-4.37-25.41-4.29ZM284.84,227.8a6.83,6.83,0,0,0-.77-.06c-4,0-5.54,4.06-6.59,8.45,0,.17-.05.33-.09.5V234l4.22-6.83Zm-2.92,33.91L277.39,251v-3.95a49.55,49.55,0,0,0,4.9,14l0,0Zm24.81,75.55c-5.83,0-10.22-6.91-10.22-16.09,0-5.44,1.55-10.07,4-12.95l3.45,3.2,8.11-2,2,9.64,2.45,6.11C315.46,332.28,311.61,337.26,306.73,337.26Zm13.18-44.81-11.26-.77-2.45,6.74-5.13-5.22-3.16-7.07-2.4-9.12-10-20.85L283,260c-1.29-2.49-6.76-13.85-4.44-23.58,1.31-5.51,2.88-7.6,5.51-7.6s6.29,2.09,11.78,5c5.28,2.76,8.14,3.48,9.7,3.48s1.84-.85,1.84-.85-.12-1-.54-3.65c6.54,2,13.83,3.95,17.91,4.44,7.24.85,7.49,2.57,7.5,2.57l0,.1,2,11.86c3.25,13.51,8.19,16.22,14.32,18.35,3.12,1.08,13.59,2,24.56,2,9.76,0,19.93-.74,25.66-2.77,12.23-4.33,14.74-17.29,15.57-26.65.29-3.2,1.3-5.52,3-6.93,2.78-2.28,6.94-1.83,10-1.51.7.07,1.33.14,1.87.17,1.83.09,3.12.61,3.83,1.54a3.79,3.79,0,0,1,.57,2.84c0,.74-.09,18.07,4.48,23.16.76.84,1.34,1.56,1.85,2.21,2.55,3.21,3.51,4.41,15.9,6.93,10.89,2.22,26.33.28,36-1.89l-2.71,16.2-7.48,33.41L463.9,357.68l-1.45,9.41L457,376.76l.29,1.34c-6.2,10.07-12.3,18.18-17.1,21.84-5.61,4.28-26,17.09-52.64,2.1-20-11.25-38.39-27.18-46.82-40.58-.64-1-1.31-2.12-2-3.26l1.23-4.15-15.22-37.7ZM185.6,728.77A109.74,109.74,0,0,0,167,766.58c-5.89-9.08-12.25-17.14-15.9-26.87-3.24-8.62-2.57-16.62,2.59-24.41,9-13.6,20.5-24.84,33-35.1,16.77-13.77,36-23.7,54.69-34.41,4.67-2.68,9.28-5.45,13.92-8.17l-.57-1c-43.67,5.27-79.93,25.07-110.07,57.2-3.64-17.68-4.06-35.28-4.16-52.9-.16-31.06,1.89-62,4.37-92.94.74-9.28.93-18.63,2.29-27.82,2.12-14.35,8.08-27.52,14.1-40.6,1.31-2.83,3.13-5.67,5.84-7.1,11.38-6,22.68-12.15,35.66-14.4,12-2.07,24.07-3.82,35.64-7.55,23-7.43,45.68-15.66,67.09-27,1.16-.61,2-1.09,3.18.13,7.64,7.75,16.62,13.94,24.87,21,10.48,9,21.64,17,34.12,23.05a6.19,6.19,0,0,0,6.19-.12c13.51-6.75,26.62-14.2,39.52-22,.14-.69.76-.75,1.27-.95.45-.38,1.25-.73,1.4-.23.25.79-.66.43-1.08.55,0,.76-.66.9-1.21,1.11-8.67,8.2-18.4,15-28.33,21.54-22.21,14.61-46.21,25.83-70.4,36.63-2.56,1.14-3.51,2.39-3.06,5.31,1.61,10.67,3,21.38,4.36,32.08,2.86,21.64,5.67,43.3,8.59,64.93.32,2.35.14,3.46-2.65,3a73.44,73.44,0,0,0-34.61,1.51c-1.28.38-1.86.29-2.45-1.16-6.92-17-15.85-33-24.27-49.3-4.41-8.52-9-16.94-13.54-25.41,6.28,23.84,11.79,47.78,17.38,72.13-1-.43-1.51-.59-1.95-.81-30.84-15.17-62.9-16.27-95.73-8.23-1.24.31-3.26.16-3.26,1.82,0,1.88,2.07,1.31,3.28,1.51,14.91,2.47,29.85,4.85,44.77,7.3,2.94.48,5.85,1.12,8.77,1.69-16.16,1.57-31.43,5.42-45.82,13.4.48.19.62.3.7.27.81-.28,1.61-.57,2.4-.88,17.54-6.92,35.61-10.49,54.55-8.74,8.77.81,17.48,2.26,26.31,2.36,1.09,0,2.87.73,3.09-1.05s-1.6-1.6-2.73-1.74c-22.28-2.75-44.28-7.25-66.4-11-6.79-1.16-13.6-2.24-21.29-3.49A100,100,0,0,1,190.25,596c25.72-2.2,50.12,2.33,72.95,14.7a6.2,6.2,0,0,1,3.51,4.71c1,5.11,2.29,10.17,3.4,15.26a101.23,101.23,0,0,1,1.6,32.2c-.2,1.89-.33,3.77-3,3.86-7.12.24-13.58,2.77-19.71,6.12C223.69,686.74,202.86,705.74,185.6,728.77Zm236.14,24.44c-12,4.06-23.94,8.16-35.93,12.15-35.06,11.66-70.12,23.31-106.56,30-13.61,2.5-27.26,3.47-41.09,1.55-14.29-2-24.52-10.65-34.42-20-1.2-1.14-1.18-2.31-.5-4.11,3.7,2.51,7.31,4.35,11.47,4.82,1,.11,2,.53,2.68-.59.51-.89,0-1.61-.52-2.36a71.58,71.58,0,0,0-10-12.48c-1.93-1.84-2.32-3.33-1.62-5.78a46.94,46.94,0,0,1,6.34-14.19c8.48-12.18,18.13-23.55,29.66-32.71,15.28-12.14,33.44-15,52.51-11.74,7.77,1.31,14.62,5.43,22.08,7.73,9.26,2.87,18.43,5,28.39,4.7,17-.56,32.87,3.22,46.52,14.42,7.76,6.37,15.89,12.29,23.42,19a91,91,0,0,1,9.34,8.78C422.81,752.72,422.29,753,421.74,753.21Zm258.74-42.56c-.83.67-1.14,2.18-3,1.49-4.33-1.66-5.66-1.15-7.88,3a52.16,52.16,0,0,1-5.67,9.12c-1.17,1.38-3.76,2.59-2.56,4.81s3.58.84,5.48.87c.16,0,.32.3.58.56-1.75,6.26-6.06,10.24-11.82,12.91-6,2.78-12.36,4.4-18.63,6.34-17.86,5.51-36,9.15-54.84,8.69a3.34,3.34,0,0,1-2.88-.1,15.12,15.12,0,0,1-5.49-.1c-.94-.17-2,.58-2.82-.46-.19.25-.4.73-.56.71a277.28,277.28,0,0,1-38.07-6.39c-24.5-6.19-47.73-15.77-70.7-26.08-20-9-40.37-17.17-62-21.64-16-3.31-31.78-8.51-48.18-8.82-14.23-.26-26.67-4.58-38.49-11.88-5.38-3.32-10.52-7-15.78-10.49a6.2,6.2,0,0,1-3.2-5.57,219.56,219.56,0,0,0-3.42-32.15c-.64-3.41.05-5.11,3.58-6.16,4.86-1.45,9.55-3.48,14.25-5.41a27.4,27.4,0,0,1,13.1-2c15.51,1.46,30.35,5.75,45,10.91,2.37.74,4.71,1.56,7.1,2.2,9.55,2.57,18.19,7.88,28.18,9.2,5.76.76,11.49,1.9,17.22,2.93,35.45,6.42,71,11.56,107.18,7.84,9.84-1.23,19.69-2.31,29.5-3.74,20.94-3.07,41.76-7.39,63.14-4.52A33.16,33.16,0,0,0,631,645.61c19.37-4.77,42.54,2,54.28,21.37C692,678.07,693.7,700,680.48,710.65Z"/><path class="cls-9" d="M351.92,239.45c.25.18.53.4.84.64,2.47,1.93,6.87,5.37,17.62,5.37,1,0,2.15,0,3.32-.1h0c14.54-.88,19.4-3.37,19.6-3.47l.53-.29-.33-.51c-.13-.19-13.35-19.68-40-10.49l-4,2.91,0,.26C349.46,233.92,349.31,237.61,351.92,239.45Zm3.66-7.3c.59-.2,1.16-.37,1.72-.54,0,.39,0,.8,0,1.2a8.49,8.49,0,0,0,17,0,9.66,9.66,0,0,0-.22-2.14,28,28,0,0,1,16.22,10.13c-1.41.76-6.13,2.83-16.58,3.45-11.27.67-15.84-3.09-18.29-5.11-.38-.32-.71-.59-1-.79a5.18,5.18,0,0,1-1.78-4Z"/><path class="cls-9" d="M400,306.18c1,0,1.63,0,1.74-.05l0-1.1c-7.73-.85-12.36-3.33-13.76-7.38-3.44-9.92,13-26.28,13.21-26.44l-.77-.79-12.87,12.46-.1.12c-4.35,7.41-5.28,13.21-2.77,17.24C388.06,305.57,396.39,306.18,400,306.18Z"/><path class="cls-9" d="M476.64,233.79c-3.29-2.17-8.5-2.8-10.8-3v0h-.12l-.57,0,0,0h-.43a21.21,21.21,0,0,0-2.35.22c-8.46.66-11.84,2.75-15.74,5.74-1.38,1.05-2,2.17-1.75,3.33.55,2.88,6,4.61,7.15,4.93a44.86,44.86,0,0,0,11.8,1.43c1.58,0,2.62-.07,2.74-.07v-1.11a100.92,100.92,0,0,1-14.31-1.92c-2.1-.51-3.57-1.36-4.23-2.47a2.66,2.66,0,0,1-.37-1.81,11.12,11.12,0,0,1,5.26-4.34,6.62,6.62,0,0,0-.34,2,7.87,7.87,0,0,0,15.72,0,7.12,7.12,0,0,0-1.7-4.59,43.13,43.13,0,0,1,7,1.93,5.23,5.23,0,0,1,3.4,2.83c.79,2-.1,4.26-.71,5.44-1,1.86-5.85,2.56-7.65,2.67v1.1c.51,0,1,0,1.44,0,6.5,0,8-3.33,8.06-3.44C479.15,240.65,480.23,236.18,476.64,233.79Z"/><path class="cls-9" d="M348.78,238.18l-.08-.06c-4.39-3.09-4.65-2.76-5-2.36s-.59.73,4.62,5.4c6.78,6.08,16.7,7.13,22.76,7.13a44.28,44.28,0,0,0,5.32-.29l-.09-1.1C358.13,247.54,348.87,238.28,348.78,238.18Z"/><path class="cls-9" d="M444.64,243.5,443,241.27l.66,2.69c.1.44,2.52,9.27,22.78,9.27a92.71,92.71,0,0,0,12.2-.88l-.08-1.1C478.27,251.26,450.59,251.61,444.64,243.5Z"/><path class="cls-9" d="M378.85,258.79l.45,1c.14-.05,13.56-4.94,18.41-17.71l-1-.46A50.57,50.57,0,0,1,378.85,258.79Z"/><path class="cls-9" d="M483.74,133.34c-2.27-1.28-3.58-1.53-4.23-.8-1.27,1.4,1.74,6,3.09,7.88l.06.06c5.5,5.71,16.62,36.55,16.73,36.86l1.06-.3C500.11,175.45,492,138,483.74,133.34Z"/><path class="cls-9" d="M479.6,211.69l-.79.17,0,.3-1-1.74-1,.45.19.55a6,6,0,0,0-1.81-.78c-.52-.13-1.23-.3-1.45.28-.14.37,0,.67.67,1.1a6.73,6.73,0,0,1-3.37.84,19.23,19.23,0,0,1-5.74-1.32c-1.36-.45-2.9-.95-4.64-1.39l-3-.75a9.35,9.35,0,0,0-2.78-.35l-.93.08a8.41,8.41,0,0,0-1.74-.4,29.62,29.62,0,0,0-6.12.8l.14,1.09h0c-.72.29-1.52.64-2.36,1.06-3.81,1.9-5.69,6.43-5.77,6.62l0,.14c-.07.47-.54,4.68,1.65,5.92a2.59,2.59,0,0,0,1.3.33c1.25,0,2.8-.74,4.72-2.25,7.7-6.05,12.27-5.21,12.3-5.2l.1,0h.09c.16,0,16.05-2,26.15,6.24l.95.77-.05-1.22a17,17,0,0,0-2.05-7.17c-.61-1-.9-1.49-1.45-1.24l-.14.08c-.53-1.39-1-2.67-1-2.68l-1.84-5.15Z"/><path class="cls-9" d="M388,207.36l-1.58-1,.35.73a12.39,12.39,0,0,0-1.52-1.06l-1.22-.69-3.44-3.68,2.46,4.48-6.78-4.91,3.46,3.76a10.59,10.59,0,0,0-1.15-.46l-.42,1a13,13,0,0,1,2.08,1.25h-.15a14,14,0,0,1-5.19-1.08l-.24.45a21.3,21.3,0,0,0-4.62-1l-8.11-.65.75.23a13.37,13.37,0,0,0-4.1.84l-2.53,1,4.07.12c-2,.52-4.37,1.11-6.14,1.45-3.69.73-14.32,7.6-14.77,7.89l.54,1a79.52,79.52,0,0,1,12.05-4.46c2.12-.57,15.62-1.64,15.65-1.65,3.66.43,13.18,2.4,13.35,6.31v.24l.17.15c.15.13,3.37,3,6.51,3a4.8,4.8,0,0,0,.85-.07,4.64,4.64,0,0,0,3.32-2.73C394.84,211.6,388.09,207.4,388,207.36Z"/></g></g></svg>