<?xml version="1.0" encoding="utf-8"?>
<!-- Generator: Adobe Illustrator 23.0.1, SVG Export Plug-In . SVG Version: 6.00 Build 0)  -->
<svg version="1.1" id="Layer_1" xmlns="http://www.w3.org/2000/svg" xmlns:xlink="http://www.w3.org/1999/xlink" x="0px" y="0px"
	 viewBox="0 0 1080 1080" style="enable-background:new 0 0 1080 1080;" xml:space="preserve">
<style type="text/css">
	.st0{fill:#E71D02;}
	.st1{fill:#FFFFFF;}
	.st2{fill:#FFE3C9;}
	.st3{opacity:0.55;}
	.st4{fill:#E0CBC1;}
	.st5{fill:#FEFEFD;}
	.st6{fill:#FDB933;}
	.st7{fill:#020100;}
	.st8{fill:#010101;}
	.st9{fill:none;}
</style>
<g id="XMLID_470_">
	<circle id="XMLID_1043_" class="st0" cx="540" cy="569.2" r="383.3"/>
	<g id="XMLID_505_">
		<path id="XMLID_1042_" class="st1" d="M810.2,723.5L756.8,591l-29.5-15.2l-90-19.5L618.6,507l4.9-8.7l1.5-9.6l17.7-38.7l7.6-34.1
			l3.6-21.6l1.7-39.3l6.3-0.6l13.9-4.4l2.4-1.8l2.7-5.7l5.8-17.3l1.8-8.2l1-14.5l-2.6-15.9l-9.1-19.8l-9.4-22.4l-15.2-28.8
			l-15.6-21.7l-18.7-20l-6.9-5.2L572,152.3l-18-8.2c0,0-5.2-6.1-34.2-9.2l-17.1,0l-24,5l-14.9,7.1l-19,14.7l-11.2,15l-11.2,17.6
			l-18,28.1l-23.2,31.2l-28.4,38.5l-5.2,10.9l0.9,2.8l3.7,8.1l13.1,40.9l34.2,31l38,15.7l3-4.7l5.3,11l2.5,9.6l3.7,8.4l5.1,5.3
			l4,3.7l4.4-1.1l2.5-6.8l2.9,0.2l4.1,20.3l14.7,36.4l-4.7,16l-50.5,51.4l-45.4,20.4l-73,21.9l-11.9,42.2l-17.9,172.5l33.1,101.6
			l363.3-92L810.2,723.5z"/>
		<path id="XMLID_1041_" class="st2" d="M617,551.1l-72,27.8l-72-42.3c0,0,1-28.4,3-31.1s7-39,7-39l-9.7-36.2l-11.9,4.5l-11.6-11.9
			l-7.4-22.4c0,0-10.7-3.4-10.7-5.7c0-2.4-2.8-38.1-2.8-38.1l23.7-32.8c0,0,19.7-37,19.8-37.5s63.2-20.5,63.2-20.5l19.9-1.9
			l30.6,1.9c0,0,26.7,2,51.3,22.3c24.6,20.3,18.1,74.9,18.1,74.9l-5.4,54.7l-19.9,56.2l-9.4,36.9L617,551.1z"/>
		<path id="XMLID_1040_" class="st2" d="M802.9,705.4l-20.6-8.4l-36.3,7.3l-19.7,9.1l-9.8-10.3l-8.2,2.1l-10.3,8.3l-19.4,22.3
			L617,771.7l-111-24.6l-41.1-3.8l-22.1,8l3.7,40.6l-10,8.8l-51.3,22.5l-47.6,77.4l27.2,24L392,934l69.3-9.3l114.3-17.9l49.2-18.7
			l42-1.9l72.3,7.1l64-8.2c0,0,28.7-22.1,30.9-22.7c2.2-0.6,20.6-21.2,20.6-24.2c0-2.9,3.7-19.8,3.7-22.8c0-3,0-21.4,0-21.4
			l-43-58.3L802.9,705.4z"/>
		<g id="XMLID_1028_" class="st3">
			<path id="XMLID_1039_" class="st4" d="M504.7,279.6c0,0,110.1-28.5,148.4,37.5c0,0,15.8-24.4-2.2-55.8
				c-18-31.4-47.3-42.1-47.3-42.1s42.5,34.9,43.6,55.4s0.4,25.6,0.4,25.6S605.4,234.4,504.7,279.6z"/>
			<g id="XMLID_1035_">
				<path id="XMLID_1038_" class="st4" d="M629.7,447.2c0,0-2.1-27-17.1-33.4c-15-6.4,5.1-22.3,5.1-22.3s26.1-10.7,30-17.6
					s13.3,0,5.6,24.4C645.5,422.8,644.2,454.5,629.7,447.2z"/>
				<path id="XMLID_1037_" class="st4" d="M597.1,418.7c0,0-6.9-1.3-5.8,2.5c0.2,0.7,1.8,3,6.2,3.2s5.4-3.7,2.5-5.2
					C597.2,417.7,597.1,418.7,597.1,418.7z"/>
				<path id="XMLID_1036_" class="st4" d="M625.5,335.4c6.8-15.9-9.3-32.1-25.5-26.1c-4,1.4-7.9,3.4-11,6c-9.5,8-12.1,24.6-5.3,28.4
					c6.8,3.8,32.2-3,36.8-2.7C621.9,341.2,624,338.9,625.5,335.4z"/>
			</g>
			<path id="XMLID_1034_" class="st4" d="M504.7,177.3c0,0,14.1,16.7,10.8,26.6C512.2,213.7,509.1,192.9,504.7,177.3z"/>
			<path id="XMLID_1033_" class="st4" d="M566.6,211.8c-11,19.2-14.2-24.3-22.4-57.5C544.2,154.3,577.6,192.5,566.6,211.8"/>
			<path id="XMLID_1032_" class="st4" d="M610.6,218.2c-11,19.2-14.2-24.3-22.4-57.5C588.3,160.7,621.7,199,610.6,218.2"/>
			<path id="XMLID_1031_" class="st4" d="M640.6,233.2c-11.3,21.7-13.9-27-21.6-64.1C619,169.1,651.9,211.6,640.6,233.2"/>
			<path id="XMLID_1030_" class="st4" d="M573.5,271.4c0,0-57.9,37.5-19.5,78.6c38.3,41.2,13.2,76.6,13.2,76.6s16.3,2.9,4.7,14.8
				c-11.6,11.8-2.7,23.7,16.5,30c19.2,6.3-33.7,9.1-23.9,19.5c9.7,10.5,8.4,14.6,7,27.2c-1.4,12.5-4.8,21.6-4.8,21.6
				s-62.4-17.5-78.1-66.9c-9.4-29.4-14.7-39.2-24.1-41.2c-4.2-0.9-10.3-8.7-10.3-8.7l-4.6-9l-3.1-11.8l-32.2-57.4l89.6-74.6
				L573.5,271.4z"/>
			<path id="XMLID_1029_" class="st4" d="M359.1,288c0,0,53.9-17.5,63.5-33.5c9.6-16-1.2,0-1.2,0s-6.2-14.8-12.4-14.3
				c0,0,18.3,4.5,24,5.9s31.2,0,31.2,0l15.7-10.1c0,0-10.3-19.5-21.9-19.6s-30.5-15-23.1-24.7c7.4-9.6,45,27.4,45,27.4l9.1,9.8
				l-6.4,12.8l-9.2,21.9l-62.8,28L359.1,288z"/>
		</g>
		<g id="XMLID_1014_">
			<g id="XMLID_1022_">
				<g id="XMLID_1023_">
					<g id="XMLID_1024_">
						<g id="XMLID_1026_">
							<path id="XMLID_1027_" d="M583.2,436.2c0,0-4,3-11.3-3.2C571.9,433,578.3,437.4,583.2,436.2z"/>
						</g>
					</g>
				</g>
			</g>
			<g id="XMLID_1015_">
				<g id="XMLID_1016_">
					<g id="XMLID_1017_">
						<g id="XMLID_1020_">
							<path id="XMLID_1021_" d="M580.3,437.5c-2,0-5-0.8-8.8-4.1l0.7-0.9c0.1,0,6.2,4.2,10.8,3.1l2.6-0.6l-2.1,1.6
								C583.4,436.7,582.3,437.5,580.3,437.5z"/>
						</g>
					</g>
				</g>
			</g>
		</g>
		<g id="XMLID_1001_">
			<g id="XMLID_1009_">
				<g id="XMLID_1010_">
					<g id="XMLID_1011_">
						<g id="XMLID_1012_">
							<path id="XMLID_1013_" d="M572.1,429c0,0-8.9-4-13.6-3c-4.7,1-1.3,2.4-1.3,2.4s8.6,5.4,15.1,1.8
								C572.9,429.8,572.1,429,572.1,429z"/>
						</g>
					</g>
				</g>
			</g>
			<g id="XMLID_1002_">
				<g id="XMLID_1003_">
					<g id="XMLID_1004_">
						<g id="XMLID_1005_">
							<path id="XMLID_1006_" d="M567.2,432c-5.2,0-10.1-3-10.3-3.2c-0.3-0.1-1.5-0.7-1.4-1.6c0.1-0.8,1-1.3,2.9-1.8
								c4.8-1,13.6,2.9,14,3.1l0.2,0.1c0.2,0.2,0.6,0.7,0.6,1.3c0,0.3-0.2,0.6-0.5,0.7C570.8,431.6,568.9,432,567.2,432z
								 M560.2,426.4c-0.6,0-1.1,0-1.6,0.2c-1.9,0.4-2.1,0.8-2.1,0.8c0,0.1,0.5,0.4,0.8,0.5c0.2,0.1,8.5,5.2,14.7,1.9
								c0,0-0.1-0.1-0.2-0.2C570.9,429.1,564.5,426.4,560.2,426.4z"/>
						</g>
					</g>
				</g>
			</g>
		</g>
		<g id="XMLID_987_">
			<g id="XMLID_996_">
				<g id="XMLID_997_">
					<g id="XMLID_998_">
						<g id="XMLID_999_">
							<path id="XMLID_1000_" d="M591.2,431.4c0,0-4.1,3.1-2.1-0.3c2.1-3.4,7.1-2.9,9.6-3.4c2.5-0.4,4.5-2.3,4.6-1.3
								c0.1,1,0.9,1.3-1.5,2.1C599.4,429.2,593,428.3,591.2,431.4z"/>
						</g>
					</g>
				</g>
			</g>
			<g id="XMLID_988_">
				<g id="XMLID_989_">
					<g id="XMLID_990_">
						<g id="XMLID_991_">
							<path id="XMLID_992_" d="M588.8,433.2c-0.3,0-0.5-0.1-0.5-0.2c-0.5-0.5-0.1-1.4,0.4-2.2c1.8-2.9,5.5-3.2,8.2-3.4
								c0.7-0.1,1.3-0.1,1.8-0.2c1.1-0.2,2.1-0.7,2.9-1.1c0.9-0.4,1.5-0.7,1.9-0.4c0.1,0.1,0.4,0.3,0.4,0.7c0,0.2,0.1,0.3,0.1,0.4
								c0.3,1.1-0.1,1.6-2,2.2c-0.8,0.3-2,0.3-3.3,0.4c-2.6,0.2-5.9,0.4-7,2.3l-0.2,0.2C590.1,432.9,589.3,433.2,588.8,433.2z
								 M596.8,428.4c-2.6,0.2-5.7,0.5-7.1,2.9c-0.2,0.2-0.3,0.4-0.3,0.6c0.4-0.2,1-0.5,1.5-0.9
								C591.9,429.2,594.4,428.7,596.8,428.4z M602.9,426.7c-0.2,0.1-0.5,0.2-0.8,0.4c-0.8,0.4-1.9,0.9-3.2,1.1
								c-0.3,0.1-0.7,0.1-1.1,0.1c0.3,0,0.6,0,0.8-0.1c1.2-0.1,2.3-0.2,3-0.4c1.2-0.4,1.3-0.6,1.4-0.6c0,0,0-0.2-0.1-0.3
								C602.9,426.9,602.9,426.8,602.9,426.7z"/>
						</g>
					</g>
				</g>
			</g>
		</g>
		<g id="XMLID_975_">
			<g id="XMLID_982_">
				<g id="XMLID_983_">
					<g id="XMLID_984_">
						<g id="XMLID_985_">
							<path id="XMLID_986_" d="M438.8,388.8c0,0,4.8,7.1,5.8,9.5c1,2.3,4.6,6.3,5.5,15.4c1,9,7.7,11.3,8.1,14
								c0.5,2.7,5.4,4.1,7.4,2.9c2-1.2,0.5-5.2,1.7-6.3c1.2-1.1,3.9-3.9,4.7-0.5c0.7,3.4,0.3-0.8-1.6-0.7c-1.9,0.1-2.6,2.3-2.6,2.3
								s-0.6,3-0.7,4c-0.1,1.1-2.1,3.2-6.2,1.6c-2.7-1.1-3.3-2.5-3.3-3.4c0-0.5-0.2-1-0.5-1.3c-0.9-0.9-2.5-2.6-3.9-3.9
								c-0.9-0.9-3.2-4.6-3.7-8.4C449.2,413,449.3,406.3,438.8,388.8z"/>
						</g>
					</g>
				</g>
			</g>
			<g id="XMLID_976_">
				<g id="XMLID_977_">
					<g id="XMLID_978_">
						<g id="XMLID_979_">
							<path id="XMLID_980_" d="M463.6,432.1c-0.8,0-1.8-0.2-2.9-0.6c-3-1.2-3.6-2.9-3.7-3.9c0-0.4-0.2-0.8-0.4-1
								c-0.9-0.9-2.5-2.5-3.9-3.8c-1-1-3.4-4.9-3.9-8.7c0-0.1,0-0.2,0-0.3c-0.6-7-6-17.3-10.5-24.7l0.9-0.6c0.2,0.3,4.8,7.2,5.8,9.6
								c0.2,0.5,0.6,1.1,1,1.8c1.4,2.5,3.8,6.6,4.6,13.7c0.6,5.7,3.6,8.6,5.7,10.7c1.2,1.2,2.2,2.2,2.4,3.3c0.1,0.9,0.9,1.7,2.2,2.2
								c1.6,0.7,3.5,0.8,4.5,0.2c0.9-0.5,0.9-1.9,0.9-3.2c0-1.2,0-2.4,0.7-3.1l0.2-0.2c1-0.9,2.6-2.4,3.9-2c0.7,0.2,1.2,0.9,1.4,2
								c0.1,0.5,0.2,0.9,0.2,1.1c0.1,0.2,0.1,0.3,0.1,0.4l0.1,0.5l-0.5,0.1c-0.4,0.1-0.5-0.1-0.7-0.7c-0.2-0.5-0.6-1.4-1.3-1.4
								c-1.5,0.1-2.1,1.9-2.1,1.9l0,0c0,0-0.5,2.9-0.7,3.9c-0.1,0.7-0.7,1.5-1.5,2C465.6,431.7,464.8,432.1,463.6,432.1z"/>
						</g>
					</g>
				</g>
			</g>
		</g>
		<g id="XMLID_956_">
			<g id="XMLID_957_">
				<g id="XMLID_968_">
					<g id="XMLID_969_">
						<g id="XMLID_970_">
							<g id="XMLID_971_">
								<path id="XMLID_972_" d="M576.8,496.4c-6.9,0-21-3.7-29.6-12.5c-3-3-7.7-8.1-11.4-12.2c-7.7-8.5-7.5-8.8-6.9-9.7l0.6-0.8
									l1.1,0.5c1.6,0.8,6.6,1.7,11.9,1.7c2.7,0,10.9-2.2,18.1-4.2c6-1.6,11.2-3,13.5-3.3c3.8-0.4,6.1,1.7,7.2,2.8
									c4.6-3.2,12.3-1.1,24.6,4.8c6.2,3,9.1,3.6,9.1,3.6l3,0.7l-2.1,1.4c-0.1,0.1-10.6,7.3-16.9,14.2
									c-6.2,6.8-11.8,11.4-20.3,12.7C578.3,496.3,577.6,496.4,576.8,496.4z M532.1,464.4c3.5,4.2,11.4,13.2,16.3,18.2
									c9.2,9.4,25.5,13,30.2,12.3c7.8-1.3,10.6-3.4,16.5-8.7c11.3-10.3,18.4-15.4,21.9-18c-1.7-0.5-8.1-2.5-12.1-4.2
									c-15.2-6.6-20.4-6.8-22.8-4.5l-1.1,1l-0.7-1.3c-0.5-0.6-2.1-2.3-6.2-1.9c-2.1,0.2-7.2,1.3-12.8,2.8
									c-7.7,2.1-16.3,4.3-19.3,4.3C538.5,464.5,534.8,465,532.1,464.4z"/>
							</g>
						</g>
					</g>
				</g>
				<g id="XMLID_958_">
					<g id="XMLID_959_">
						<g id="XMLID_960_">
							<g id="XMLID_961_">
								<path id="XMLID_962_" d="M576.8,496.9c-7.3,0-21.4-3.9-29.9-12.7c-3-3-7.6-8.1-11.4-12.2c-7.7-8.5-7.9-9-6.9-10.4l0.9-1.2
									l1.5,0.7c1.6,0.8,6.7,1.7,11.7,1.7c2.7,0,10.8-2.2,17.9-4.1c6.1-1.7,11.3-3.1,13.6-3.3c3.9-0.4,6.3,1.6,7.3,2.6
									c5.2-3.2,13.7-0.3,24.8,5c5.3,2.5,8,3.3,8.8,3.5l0,0l4.5,1.1l-3.1,2.1c-0.1,0.1-10.5,7.3-16.8,14.1
									c-6.3,6.9-12,11.5-20.6,12.9C578.3,496.9,577.6,496.9,576.8,496.9z M529.7,461.9l-0.3,0.4c-0.4,0.5-0.6,0.8,6.8,9
									c3.8,4.2,8.4,9.2,11.4,12.2c8.3,8.5,22,12.3,29.2,12.3c0.8,0,1.4,0,2-0.1c6.8-1.1,11.7-4.3,16.6-9.1
									c-5.9,5.4-8.9,7.5-16.7,8.8c-4.6,0.8-21.1-2.7-30.7-12.4c-4.6-4.7-12.3-13.5-16.3-18.2l-1-1.2l1.6,0.3
									c1.8,0.4,4,0.3,6.4,0.2c0.9,0,1.8-0.1,2.8-0.1c-5-0.1-9.4-1-11-1.8L529.7,461.9z M533.5,465.2c4.2,4.9,11,12.7,15.3,17.1
									c8.9,9.1,25,12.9,29.7,12.1c7.6-1.2,10.3-3.2,16.2-8.6c10.5-9.5,17.3-14.6,21.1-17.4c-5-1.5-8.7-2.8-11.1-3.9
									c-16.4-7-20.3-6.4-22.2-4.6l-1.6,1.5l-1.1-1.9c-1.3-1.6-3.8-1.8-5.6-1.6c-1.9,0.2-6.9,1.2-12.8,2.8
									c-6.8,1.8-16.2,4.3-19.5,4.3c-1,0-2.1,0-3.2,0.1C536.8,465.2,535.1,465.3,533.5,465.2z M580.7,458.9l0.4,0.7l0.4-0.4
									l-0.3,0.2l-0.3-0.3C580.8,459.1,580.8,459,580.7,458.9z M575.1,456.5c-0.3,0-0.6,0-0.9,0c-1.9,0.2-6.1,1.3-11.1,2.6
									c4.6-1.2,8.9-2.1,11-2.3c1.9-0.2,3.6,0,4.8,0.7C577.9,456.9,576.6,456.5,575.1,456.5z"/>
							</g>
						</g>
					</g>
				</g>
			</g>
		</g>
		<g id="XMLID_941_">
			<g id="XMLID_951_">
				<g id="XMLID_952_">
					<g id="XMLID_953_">
						<g id="XMLID_954_">
							<path id="XMLID_955_" d="M458,387c0,0-2.2,6.5-2.5,8.8c-0.3,2.3-1.1,6.9,2.5,6.9s4.6,5.9-1.4,5.2c-6-0.6-3.5-7.5-3.5-7.5
								s-1.7-9.2-2.1-4.6c-0.4,4.6-1.3,8.4,0,10.7s-2.2-7.4-5.2-9c0,0,3.2-0.2,3.1,1.6c-0.1,1.8,2.4-8.1,2.4-10.3
								c0-2.2,0.7-11.4,4.2-9.8C459.1,380.7,459,383.8,458,387z"/>
						</g>
					</g>
				</g>
			</g>
			<g id="XMLID_942_">
				<g id="XMLID_943_">
					<g id="XMLID_944_">
						<g id="XMLID_945_">
							<path id="XMLID_946_" d="M457.5,408.5c-0.3,0-0.6,0-0.9-0.1c-1.7-0.2-3-0.9-3.7-2.1c-1.4-2.2-0.5-5.3-0.2-6.1
								c-0.3-1.5-0.7-3.2-1-4.3c-0.1,0.9-0.2,1.8-0.3,2.6c-0.2,2.1-0.5,4-0.3,5.5c0.6,1.4,0.9,2.5,0.9,2.7l-0.1,0.4l-0.4,0.1
								c-0.4,0.1-0.7-0.3-0.8-0.6c-0.4-0.7-0.6-1.4-0.7-2.3c-1-2.3-2.8-5.7-4.3-6.5l-1.7-0.9l1.9-0.1c0.2,0,2.1-0.1,3.1,0.8
								c0.7-2.4,1.8-7.5,1.8-8.9c0-0.1,0.1-8.4,2.9-10.2c0.6-0.4,1.4-0.4,2.1-0.1c4.8,2.3,3.2,7.1,2.7,8.6l0,0
								c0,0.1-2.2,6.5-2.4,8.7l-0.1,0.5c-0.2,1.6-0.5,4.1,0.5,5.2c0.3,0.4,0.8,0.6,1.5,0.6c1.3,0,2.5,0.7,3.1,1.8
								c0.5,1,0.5,2.2-0.1,3.1C460.6,407.6,459.6,408.5,457.5,408.5z M451.5,394c0.4,0,1.1,0.3,2.2,6.3l0,0.1l-0.1,0.1
								c0,0-1.2,3.3,0.1,5.3c0.6,0.9,1.5,1.4,2.9,1.5c1.6,0.2,2.8-0.2,3.4-1c0.4-0.5,0.4-1.3,0-2c-0.4-0.8-1.2-1.2-2.1-1.2
								c-1,0-1.8-0.3-2.3-1c-1.3-1.5-0.9-4.2-0.7-6.1l0.1-0.5c0.3-2.3,2.4-8.6,2.5-8.9c1.2-3.8,0.5-6-2.2-7.3
								c-0.5-0.3-0.9-0.1-1.1,0c-1.7,1-2.4,6.6-2.4,9.2c0,0.5-0.4,3-1,5.5C451,394.1,451.2,394,451.5,394
								C451.5,394,451.5,394,451.5,394z M448.8,399.9c0.4,0.6,0.8,1.3,1.1,1.9c0.1-1,0.2-2.1,0.3-3.3c0.1-0.8,0.2-1.7,0.3-2.7
								c-0.5,2-1,3.8-1.3,4l-0.3,0.2L448.8,399.9z M447.5,398.2c0.3,0.3,0.6,0.7,0.8,1c0-0.1,0-0.1,0-0.2c0-0.2,0-0.4-0.2-0.5
								C448,398.4,447.8,398.3,447.5,398.2z"/>
						</g>
					</g>
				</g>
			</g>
		</g>
		<g id="XMLID_928_">
			<g id="XMLID_936_">
				<g id="XMLID_937_">
					<g id="XMLID_938_">
						<g id="XMLID_939_">
							<path id="XMLID_940_" d="M444.6,362.4c0,0-6.2-6.6-6.3,2.8c-0.1,9.3,2,15,1.8,18.9s2-3.9,1.3-7.8S436.5,358.9,444.6,362.4z"
								/>
						</g>
					</g>
				</g>
			</g>
			<g id="XMLID_929_">
				<g id="XMLID_930_">
					<g id="XMLID_931_">
						<g id="XMLID_932_">
							<path id="XMLID_933_" d="M440.3,385.8l-0.4-0.2c-0.4-0.2-0.4-0.7-0.4-1.6c0.1-1.6-0.2-3.5-0.6-5.9c-0.5-3.4-1.2-7.5-1.2-13
								c0-3.1,0.7-4.9,2.1-5.4c2.1-0.8,4.9,1.9,5.2,2.3l1.8,1.9l-2.4-1.1c-1.5-0.6-2.5-0.7-3.2-0.2c-1.8,1.5-0.5,7.4,0.3,11
								c0.2,1,0.4,1.8,0.5,2.5c0.4,2.8-0.6,8.8-1.4,9.4L440.3,385.8z M440.7,360.7c-0.2,0-0.3,0-0.5,0.1c-0.9,0.3-1.4,1.9-1.4,4.4
								c-0.1,5.4,0.6,9.5,1.2,12.8c0.3,1.5,0.5,2.9,0.6,4.1c0.3-1.8,0.6-4,0.3-5.7c-0.1-0.6-0.3-1.4-0.5-2.4
								c-0.9-4.3-2.2-10.2,0.1-12.1c0.5-0.4,1.1-0.6,1.8-0.6c0,0,0,0,0,0C441.8,360.9,441.2,360.7,440.7,360.7z"/>
						</g>
					</g>
				</g>
			</g>
		</g>
		<g id="XMLID_917_">
			<g id="XMLID_923_">
				<g id="XMLID_924_">
					<g id="XMLID_925_">
						<g id="XMLID_926_">
							<path id="XMLID_927_" d="M452.5,361.3c0,0,8.1,0.9,8.4,15.8s0,17.6,0,17.6s-0.7-29.9,4.2-35.8"/>
						</g>
					</g>
				</g>
			</g>
			<g id="XMLID_918_">
				<g id="XMLID_919_">
					<g id="XMLID_920_">
						<g id="XMLID_921_">
							<path id="XMLID_922_" d="M461.4,394.7l-1.1,0c0-0.5-0.1-5.5,0.1-11.6c0-1.7,0-3.7-0.1-5.9c-0.2-14.2-7.8-15.2-7.9-15.2
								l0.1-1.1c0.3,0,6.9,0.9,8.5,11.7c0.6-6.1,1.7-11.7,3.6-14l0.8,0.7c-2.8,3.4-3.7,15.1-4,24.1
								C461.6,392.6,461.5,394.6,461.4,394.7z"/>
						</g>
					</g>
				</g>
			</g>
		</g>
		<g id="XMLID_904_">
			<g id="XMLID_912_">
				<g id="XMLID_913_">
					<g id="XMLID_914_">
						<g id="XMLID_915_">
							<path id="XMLID_916_" d="M648.1,434.6c0,0,9.4,11.7,3.4,22.7c-6,11.1-12.8,4.8-12.8,4.8l-1.4,1c0,0,3.3,4.9,9.7,1.5
								s7.9-9.5,7.9-15.7c0-6.2-2.3-12.3-6.7-16.9L648.1,434.6z"/>
						</g>
					</g>
				</g>
			</g>
			<g id="XMLID_905_">
				<g id="XMLID_906_">
					<g id="XMLID_907_">
						<g id="XMLID_908_">
							<path id="XMLID_909_" d="M642.7,466.4c-3.8,0-5.8-2.9-5.9-3l-0.3-0.4l2.2-1.5l0.3,0.3c0,0,2.3,2,5.2,1.5
								c2.5-0.4,4.8-2.5,6.8-6.2c5.8-10.6-3.3-22-3.3-22.1l-0.1-0.2l0.1-4.1l0.9,1c4.4,4.6,6.8,10.8,6.8,17.3
								c0,5.1-0.8,12.2-8.1,16.2C645.5,466.1,644,466.4,642.7,466.4z M638.1,463.2c0.9,1.1,3.8,3.5,8.6,0.9
								c5.2-2.8,7.6-7.6,7.6-15.2c0-5.8-2-11.2-5.6-15.5l0,1c1.1,1.5,9.1,12.6,3.3,23.2c-2.2,4-4.8,6.3-7.6,6.8
								c-2.8,0.5-4.9-0.9-5.7-1.5L638.1,463.2z"/>
						</g>
					</g>
				</g>
			</g>
		</g>
		<g id="XMLID_891_">
			<g id="XMLID_899_">
				<g id="XMLID_900_">
					<g id="XMLID_901_">
						<g id="XMLID_902_">
							<path id="XMLID_903_" d="M605,409.5c0,0,8.5,11.6,4.7,19.1c-3.8,7.5-5.5,7.5-5.5,7.5s8.5-4.4,9.5-8.2S616,419.5,605,409.5z"
								/>
						</g>
					</g>
				</g>
			</g>
			<g id="XMLID_892_">
				<g id="XMLID_893_">
					<g id="XMLID_894_">
						<g id="XMLID_895_">
							<path id="XMLID_896_" d="M604.2,436.7H602l2-1c0,0,0.3-0.1,0.7-0.4c0.7-0.6,2.2-2.3,4.5-6.9c3.6-7.1-4.6-18.4-4.6-18.5
								l-3.2-4.4l4,3.7c11.2,10.2,9.9,15,8.9,18.9c-0.9,3.4-6.9,7-9,8.2C604.7,436.6,604.4,436.7,604.2,436.7z M607.8,413
								c2.2,4.1,4.9,10.8,2.4,15.9c-1,2-1.9,3.5-2.6,4.6c2.4-1.6,5.1-3.8,5.6-5.7C614.1,424.3,615.1,420.6,607.8,413z"/>
						</g>
					</g>
				</g>
			</g>
		</g>
		<g id="XMLID_866_">
			<g id="XMLID_886_">
				<g id="XMLID_887_">
					<g id="XMLID_888_">
						<g id="XMLID_889_">
							<path id="XMLID_890_" d="M595.5,461.9c0,0,5.2,1.2,5.2,3.9c0,2.7-1.4,3.5-6.1,1.1c-5.3-2.8-13.1,0.6-13.1,0.6s0,0.5-2.3-4.3
								s-8.1-2.6-11.3-2.6c-3.2,0-22,3.2-24,3.1c-2-0.1-12.1-0.4-12.1-0.4l0.4,2.8l16.7,18.3l6.8,4.5l14.4,6l7.8,0.4l6.7-1.3
								c0,0-2.6-1.9-2.6-7.8c0-5.9,0,4.4-0.6,5.6c-0.6,1.2-0.9,2.8-0.9,2.8s-1.5-5.3-1.5-7.2c0-2,0.3,5.7-0.5,6.3s-1.6-3.8-1.6-5.6
								s-0.4,5-1.6,5s-0.1-6.4-0.8-6.4c-0.7,0-1.1,2.4-1.2,2.8c-0.1,0.4-1.2,0.5-1.9-0.3c-0.7-0.8,0-2.4-1.9-2.4
								c-1.9,0-2.2,1.7-2.2,1.7s0.4-1.4-1.4-1.4s-12.1-4.2-13.8-5.3c-1.6-1-7.9-6.5-0.6-7.5c7.3-1.1,25-1.7,25.3-0.9
								c0.3,0.8,1.8,1.7,2.7,0.9s9,0,11,0c2,0,9-0.3,10.3,0s6-1.4,9.2-3.8s-3.8,3.4-12,2.6c-8.2-0.8-17.7-0.7-17.7-0.7
								s4.9-2.5,7.3-2.7c2.4-0.2,10.1,0.8,12-0.5c2-1.2,2.3-2.5,1.7-4.6C600.9,463.4,595.5,461.9,595.5,461.9z"/>
						</g>
					</g>
				</g>
			</g>
			<g id="XMLID_867_">
				<g id="XMLID_878_">
					<g id="XMLID_879_">
						<g id="XMLID_880_">
							<path id="XMLID_881_" d="M580.6,497.1l-0.5-1.6l-2.2,0.4l-8.1-0.4l-14.4-6l-6.9-4.6l-16.9-18.5l-0.5-3.6l0.7,0
								c0,0,10.1,0.4,12.1,0.4c0.9,0,5.8-0.7,10.5-1.4c5.7-0.9,11.7-1.7,13.4-1.7c0.7,0,1.5-0.1,2.4-0.2c3.2-0.4,7.5-1,9.4,3.1
								c1.2,2.4,1.7,3.4,2,3.8c1.7-0.7,8.4-3,13.2-0.5c3,1.6,4.2,1.5,4.7,1.2c0.4-0.2,0.6-0.8,0.6-1.8c0-1.5-2.3-2.6-3.9-3.2
								c-0.3-0.1-0.6-0.2-0.9-0.3l0.3-1.1c0,0,0.3,0.1,0.7,0.2c1.7,0.5,5.1,1.7,5.5,3c0.7,2.4,0.1,3.9-2,5.2
								c-1.4,0.9-4.7,0.8-8.9,0.6c-1.4-0.1-2.6-0.1-3.4-0.1c-1.3,0.1-3.3,0.9-4.9,1.6c3.4,0,9.6,0.2,15.3,0.7
								c3.8,0.4,8.2-0.7,12.3-3c0.2-0.1,0.6-0.4,0.9,0.1c0.3,0.4-0.1,0.7-0.4,0.9l-0.5,0.4c-3.3,2.5-8.2,4.3-9.7,3.9
								c-0.9-0.2-4.9-0.1-7.6,0c-1.1,0-2,0.1-2.6,0.1c-0.5,0-1.5-0.1-2.7-0.1c-2.3-0.1-7.2-0.4-7.9,0c-0.5,0.4-1.1,0.5-1.7,0.3
								c-0.7-0.2-1.4-0.7-1.8-1.3c-1.8-0.5-17.4,0-24.8,1.1c-1.2,0.2-2.8,0.6-3,1.6c-0.3,1.6,2.6,4.2,3.8,4.9
								c1.6,1,11.9,5.2,13.5,5.2c0.7,0,1.2,0.2,1.5,0.5c0.4-0.5,1.1-0.8,2.1-0.8c1.7,0,1.9,1.2,2.1,1.9c0.1,0.3,0.1,0.6,0.3,0.8
								c0.3,0.4,0.8,0.4,1,0.4c0.4-2.1,1-3,1.7-3h0.2l0.2,0.2c0.3,0.4,0.3,1,0.3,2.9c0,0.9-0.1,2.6,0.1,3.2c0.2-0.3,0.5-1.3,0.9-4
								c0.1-0.7,0.2-1.2,0.7-1.1c0.5,0,0.5,0.6,0.5,0.8c0,1.4,0.5,3.9,0.8,4.8c0.2-0.9,0.3-3.2,0.2-4.7c0-0.3-0.1-0.6-0.1-0.9
								c0-0.4,0-0.8,0.4-0.9l0.4-0.1l0.2,0.4c0,0,0,0.1,0,0.3l0,0c0,0,0,0.1,0,0.3c0,0,0,0,0,0.1c0,0.1,0,0.2,0,0.2
								c0.1,1.2,0.6,3.3,1,4.8c0.1-0.3,0.2-0.6,0.4-0.9c0.1-0.2,0.3-1.4,0.5-6.5c0-0.2,0-0.4,0-0.5c0,0,0,0,0,0h0
								c0-0.4,0.2-0.6,0.6-0.6c0.3,0,0.5,0,0.5,0.6l0,0c0,0,0,0.1,0,0.2c0,0.3,0,0.8,0,1.6c0,5.5,2.4,7.3,2.4,7.3l1,0.7l-5,1
								L580.6,497.1z M570.2,494.5l7.7,0.4l2-0.4c-0.1-0.4-0.3-1.1-0.5-1.8c-0.1,0.8-0.3,1.4-0.6,1.6c-0.3,0.2-0.6,0.2-0.9,0.1
								c-0.6-0.3-0.9-1.4-1.2-2.6c-0.3,1.3-0.8,2-1.5,2c-0.2,0-0.5-0.1-0.6-0.3c-0.6-0.6-0.6-2-0.5-4.2c0-0.3,0-0.7,0-1.1
								c-0.1,0.3-0.2,0.8-0.4,1.4c-0.1,0.4-0.4,0.6-0.8,0.7c-0.6,0.1-1.5,0-2.1-0.8c-0.3-0.4-0.4-0.9-0.5-1.3c-0.1-0.7-0.2-1-1-1
								c-1.3,0-1.6,0.9-1.7,1.2c0,0.1,0,0.1,0,0.1l-1.1-0.2c0,0,0-0.1,0-0.1c0-0.1,0-0.3-0.1-0.4c-0.1-0.1-0.4-0.2-0.8-0.2
								c-1.9,0-12.4-4.3-14-5.3c-1-0.6-4.8-3.6-4.3-6.1c0.3-1.3,1.6-2.1,3.9-2.4c4.4-0.6,25.3-2.1,25.9-0.6c0.1,0.3,0.6,0.7,1.1,0.8
								c0.3,0.1,0.6,0,0.8-0.1c0.7-0.6,3.3-0.6,8.7-0.3c1.2,0.1,2.1,0.1,2.7,0.1c0.5,0,1.5,0,2.6-0.1c1.7,0,3.3-0.1,4.7-0.1
								c-8.1-0.7-17.3-0.7-17.4-0.7l-2.3,0l2.1-1.1c0.2-0.1,5-2.6,7.5-2.7c0.8,0,2,0,3.5,0.1c2.6,0.1,6.5,0.3,8-0.3
								c-1.1,0-2.6-0.5-4.6-1.5c-4.4-2.3-10.8-0.1-12.3,0.5v0.1l-0.4,0.1c-0.5,0.1-0.6,0.1-2.9-4.6c-1.6-3.4-5.2-2.9-8.3-2.5
								c-0.9,0.1-1.8,0.2-2.5,0.2c-1.7,0-7.8,0.9-13.2,1.7c-5.2,0.8-9.8,1.4-10.8,1.4c-1.7-0.1-9.2-0.3-11.5-0.4l0.3,2l16.6,18.2
								l6.7,4.4L570.2,494.5z M582.1,491.2c-0.1,0.5-0.2,0.8-0.3,1c-0.3,0.7-0.6,1.5-0.7,2.1l2.3-0.5
								C583,493.3,582.5,492.4,582.1,491.2z M600.2,473.7c0.2,0,0.4,0,0.6,0.1c0.4,0.1,1.3-0.1,2.5-0.5
								C602.3,473.5,601.3,473.7,600.2,473.7z"/>
						</g>
					</g>
				</g>
			</g>
		</g>
		<g id="XMLID_860_">
			<g id="XMLID_861_">
				<g id="XMLID_862_">
					<g id="XMLID_863_">
						<g id="XMLID_864_">
							<path id="XMLID_865_" class="st5" d="M570.4,573.4c0.5-0.2,1.2-0.4,1.2-1.1c-0.1-0.1-0.2-0.2-0.3-0.3c-0.5,0.2-1.1,0.3-1.3,1
								C570.2,573.1,570.3,573.2,570.4,573.4z"/>
						</g>
					</g>
				</g>
			</g>
		</g>
		<g id="XMLID_854_">
			<g id="XMLID_855_">
				<g id="XMLID_856_">
					<g id="XMLID_857_">
						<g id="XMLID_858_">
							<path id="XMLID_859_" class="st5" d="M571.6,572.3c0.4-0.1,1.3,0.2,1.1-0.6c-0.2-0.5-1-0.2-1.4,0.2
								C571.4,572,571.5,572.2,571.6,572.3z"/>
						</g>
					</g>
				</g>
			</g>
		</g>
		<g id="XMLID_834_">
			<g id="XMLID_835_">
				<g id="XMLID_836_">
					<g id="XMLID_837_">
						<g id="XMLID_838_">
							<path id="XMLID_853_" class="st5" d="M757.2,679.6c0.2-0.2,0.4-0.4,0.7-0.6c-0.5-0.5-0.8-0.1-1.1,0.2
								C756.9,679.4,757.1,679.5,757.2,679.6z"/>
						</g>
					</g>
				</g>
			</g>
		</g>
		<g id="XMLID_828_">
			<g id="XMLID_829_">
				<g id="XMLID_830_">
					<g id="XMLID_831_">
						<g id="XMLID_832_">
							<path id="XMLID_833_" class="st5" d="M746.9,696.3c0,0.3-0.2,0.8,0,0.9c0.4,0.3,0.5-0.1,0.6-0.4
								C747.3,696.6,747.1,696.4,746.9,696.3z"/>
						</g>
					</g>
				</g>
			</g>
		</g>
		<g id="XMLID_822_">
			<g id="XMLID_823_">
				<g id="XMLID_824_">
					<g id="XMLID_825_">
						<g id="XMLID_826_">
							<polygon id="XMLID_827_" class="st6" points="695.2,720.4 695.2,720.5 695.2,720.4 							"/>
						</g>
					</g>
				</g>
			</g>
		</g>
		<g id="XMLID_816_">
			<g id="XMLID_817_">
				<g id="XMLID_818_">
					<g id="XMLID_819_">
						<g id="XMLID_820_">
							<path id="XMLID_821_" class="st7" d="M727.3,682.3c8-8.8,13.5-18.3,15.3-29.6c2.2-14.5,3.1-29.1,2-43.7
								c0-0.3-0.2-0.7-0.6-2.1C738.3,632.5,732.9,657.1,727.3,682.3z"/>
						</g>
					</g>
				</g>
			</g>
		</g>
		<g id="XMLID_810_">
			<g id="XMLID_811_">
				<g id="XMLID_812_">
					<g id="XMLID_813_">
						<g id="XMLID_814_">
							<path id="XMLID_815_" class="st7" d="M626.6,636.8c-7.3,0-12.8,7.2-12.3,14.7c0.3,5.3,3.5,9.6,7.5,10.3
								c4.2,0.7,8.7-1.9,10.9-6.6c2.2-4.6,2.5-9.3-0.1-13.9C631.1,638.4,628.8,636.8,626.6,636.8z"/>
						</g>
					</g>
				</g>
			</g>
		</g>
		<g id="XMLID_804_">
			<g id="XMLID_805_">
				<g id="XMLID_806_">
					<g id="XMLID_807_">
						<g id="XMLID_808_">
							<path id="XMLID_809_" class="st7" d="M513.3,660c0.1-3.5-1.4-6.8-3.9-9.5c-2.4-2.6-5.4-4.2-9-2.9c-4.4,1.5-6.3,5.3-6.9,9.5
								c-0.6,4.8,1.1,9.1,4.6,12.4c5,4.7,11.4,3.2,14-3.2C512.9,664.4,513.1,662.3,513.3,660z"/>
						</g>
					</g>
				</g>
			</g>
		</g>
		<g id="XMLID_798_">
			<g id="XMLID_799_">
				<g id="XMLID_800_">
					<g id="XMLID_801_">
						<g id="XMLID_802_">
							<path id="XMLID_803_" class="st8" d="M723.7,597.3c-0.9,14.3,1.5,28,1.5,41.8c1.7-8.9,5.8-17.2,6.1-26.4
								C731.6,606.2,729.8,601.1,723.7,597.3z"/>
						</g>
					</g>
				</g>
			</g>
		</g>
		<g id="XMLID_792_">
			<g id="XMLID_793_">
				<g id="XMLID_794_">
					<g id="XMLID_795_">
						<g id="XMLID_796_">
							<path id="XMLID_797_" class="st7" d="M650,625.4c-0.9,24.9,4.9,49,9.8,72.3C657.8,674,655.9,649.4,650,625.4z"/>
						</g>
					</g>
				</g>
			</g>
		</g>
		<g id="XMLID_786_">
			<g id="XMLID_787_">
				<g id="XMLID_788_">
					<g id="XMLID_789_">
						<g id="XMLID_790_">
							<path id="XMLID_791_" d="M738.1,689.9c-0.1,0.3-0.3,0.6-0.4,0.9c0,0.1,0.3,0.3,0.4,0.5c0.2-0.3,0.4-0.6,0.5-0.9
								C738.6,690.3,738.3,690.1,738.1,689.9z"/>
						</g>
					</g>
				</g>
			</g>
		</g>
		<g id="XMLID_780_">
			<g id="XMLID_781_">
				<g id="XMLID_782_">
					<g id="XMLID_783_">
						<g id="XMLID_784_">
							<path id="XMLID_785_" d="M740.1,689.4c0.3-0.2,0.6-0.3,0.9-0.5c-0.2-0.2-0.4-0.4-0.6-0.7c-0.3,0.2-0.5,0.5-0.8,0.7
								C739.8,689.1,740,689.2,740.1,689.4z"/>
						</g>
					</g>
				</g>
			</g>
		</g>
		<g id="XMLID_773_">
			<g id="XMLID_774_">
				<g id="XMLID_775_">
					<g id="XMLID_776_">
						<g id="XMLID_777_">
							<path id="XMLID_778_" d="M739.7,688.9c-0.3,0.2-1,0.3-0.5,0.9c0.5,0.5,0.7-0.1,0.9-0.4C740,689.2,739.8,689.1,739.7,688.9z"
								/>
						</g>
					</g>
				</g>
			</g>
		</g>
		<g id="XMLID_767_">
			<g id="XMLID_768_">
				<g id="XMLID_769_">
					<g id="XMLID_770_">
						<g id="XMLID_771_">
							<path id="XMLID_772_" class="st7" d="M347.4,600.9c7.5,4.4,14.5,9.4,21,15.1c14.4,12.6,28.3,25.6,40.8,40.1
								c0.5,0.6,0.9,1.2,1.5,1.6c0.3,0.2,1,0.3,1.3,0.1c0.5-0.3,0.3-0.9,0-1.3c-6.1-11.5-11.3-23.4-19.5-33.6
								c-7.8-9.9-18.8-14.6-30.3-18.5C357.4,602.7,352.5,601.5,347.4,600.9z"/>
						</g>
					</g>
				</g>
			</g>
		</g>
		<g id="XMLID_761_">
			<g id="XMLID_762_">
				<g id="XMLID_763_">
					<g id="XMLID_764_">
						<g id="XMLID_765_">
							<path id="XMLID_766_" class="st8" d="M330.3,775.5c22.5-13.6,48.2-18.6,73.8-26.6C382.9,743.7,341.4,758.8,330.3,775.5z"/>
						</g>
					</g>
				</g>
			</g>
		</g>
		<g id="XMLID_755_">
			<g id="XMLID_756_">
				<g id="XMLID_757_">
					<g id="XMLID_758_">
						<g id="XMLID_759_">
							<path id="XMLID_760_" class="st7" d="M375.3,634.8c-8.2-7.3-16.5-14.3-25.9-19.9c-7.5-4.5-15.2-5.3-24.4-2.1
								C342.6,619.7,359.4,626.4,375.3,634.8z"/>
						</g>
					</g>
				</g>
			</g>
		</g>
		<g id="XMLID_749_">
			<g id="XMLID_750_">
				<g id="XMLID_751_">
					<g id="XMLID_752_">
						<g id="XMLID_753_">
							<path id="XMLID_754_" class="st7" d="M382.4,598.2c-0.6,0.5-0.2,0.8,0.1,1.1c12.5,12.3,23,26.3,34.7,39.3
								c0.8,0.9,1.4,2.1,3.5,2.4C410.6,623.9,397.2,610.4,382.4,598.2L382.4,598.2z"/>
						</g>
					</g>
				</g>
			</g>
		</g>
		<g id="XMLID_743_">
			<g id="XMLID_744_">
				<g id="XMLID_745_">
					<g id="XMLID_746_">
						<g id="XMLID_747_">
							<path id="XMLID_748_" class="st8" d="M396.2,600.1c-1-2.1-1.9-4.1-3.2-6.9c13.5,5.7,23.8,15,35.9,23.3
								c-6.7-9.5-29-23.7-39.6-25.5c2.3,3.5,4.4,6.6,6.5,9.7C395.8,600.5,396,600.3,396.2,600.1z"/>
						</g>
					</g>
				</g>
			</g>
		</g>
		<g id="XMLID_737_">
			<g id="XMLID_738_">
				<g id="XMLID_739_">
					<g id="XMLID_740_">
						<g id="XMLID_741_">
							<path id="XMLID_742_" class="st7" d="M397.6,604.6c1.3,0.9,1.8,2.4,2.4,3.7l0,0.1C400.3,606.4,399.9,604.9,397.6,604.6
								L397.6,604.6z"/>
						</g>
					</g>
				</g>
			</g>
		</g>
		<g id="XMLID_731_">
			<g id="XMLID_732_">
				<g id="XMLID_733_">
					<g id="XMLID_734_">
						<g id="XMLID_735_">
							<path id="XMLID_736_" class="st7" d="M397.5,604.6c1.3-2-0.8-3-1.3-4.5c-0.2,0.2-0.4,0.3-0.5,0.5
								C396.3,601.9,397,603.2,397.5,604.6C397.6,604.6,397.5,604.6,397.5,604.6z"/>
						</g>
					</g>
				</g>
			</g>
		</g>
		<g id="XMLID_725_">
			<g id="XMLID_726_">
				<g id="XMLID_727_">
					<g id="XMLID_728_">
						<g id="XMLID_729_">
							<path id="XMLID_730_" class="st7" d="M404.8,615.4c-0.1-1.2-0.6-2.2-1.5-3l-0.1,0.1C403.2,613.8,403.7,614.7,404.8,615.4
								L404.8,615.4z"/>
						</g>
					</g>
				</g>
			</g>
		</g>
		<g id="XMLID_719_">
			<g id="XMLID_720_">
				<g id="XMLID_721_">
					<g id="XMLID_722_">
						<g id="XMLID_723_">
							<path id="XMLID_724_" d="M330.7,752.1c-0.2,0-0.4-0.1-0.6,0c-0.2,0.1-0.4,0.3-0.6,0.4c0.2,0,0.3,0,0.5-0.1
								C330.3,752.3,330.5,752.2,330.7,752.1z"/>
						</g>
					</g>
				</g>
			</g>
		</g>
		<g id="XMLID_713_">
			<g id="XMLID_714_">
				<g id="XMLID_715_">
					<g id="XMLID_716_">
						<g id="XMLID_717_">
							<path id="XMLID_718_" class="st7" d="M406.3,617.4c-0.2-0.1-0.4-0.2-0.5-0.3c0,0.1-0.1,0.3-0.1,0.3c0.2,0.1,0.3,0.2,0.5,0.3
								C406.3,617.6,406.3,617.5,406.3,617.4z"/>
						</g>
					</g>
				</g>
			</g>
		</g>
		<g id="XMLID_707_">
			<g id="XMLID_708_">
				<g id="XMLID_709_">
					<g id="XMLID_710_">
						<g id="XMLID_711_">
							<path id="XMLID_712_" class="st7" d="M402.6,611.6c-0.2-0.5-0.3-0.9-0.5-1.4l-0.3,0l0,0.3c0,0.5,0.1,0.9,0.7,1.1L402.6,611.6
								z"/>
						</g>
					</g>
				</g>
			</g>
		</g>
		<g id="XMLID_701_">
			<g id="XMLID_702_">
				<g id="XMLID_703_">
					<g id="XMLID_704_">
						<g id="XMLID_705_">
							<path id="XMLID_706_" class="st7" d="M402.1,610.3c-0.2-0.2-0.6-0.6-0.6-0.6c-0.6,0.5,0.2,0.6,0.3,1l0-0.3L402.1,610.3z"/>
						</g>
					</g>
				</g>
			</g>
		</g>
		<g id="XMLID_695_">
			<g id="XMLID_696_">
				<g id="XMLID_697_">
					<g id="XMLID_698_">
						<g id="XMLID_699_">
							<path id="XMLID_700_" class="st7" d="M402.5,611.7c0.2,0.3,0.5,0.5,0.7,0.8l0.1-0.1c-0.2-0.3-0.5-0.5-0.7-0.8L402.5,611.7z"
								/>
						</g>
					</g>
				</g>
			</g>
		</g>
		<g id="XMLID_689_">
			<g id="XMLID_690_">
				<g id="XMLID_691_">
					<g id="XMLID_692_">
						<g id="XMLID_693_">
							<path id="XMLID_694_" class="st7" d="M404.7,615.5c0.1,0.1,0.3,0.3,0.4,0.4C405,615.7,404.9,615.5,404.7,615.5L404.7,615.5z"
								/>
						</g>
					</g>
				</g>
			</g>
		</g>
		<g id="XMLID_683_">
			<g id="XMLID_684_">
				<g id="XMLID_685_">
					<g id="XMLID_686_">
						<g id="XMLID_687_">
							<path id="XMLID_688_" d="M379.8,597.3c0.1-0.2,0.1-0.3,0.2-0.5C379.9,597,379.9,597.2,379.8,597.3L379.8,597.3z"/>
						</g>
					</g>
				</g>
			</g>
		</g>
		<g id="XMLID_677_">
			<g id="XMLID_678_">
				<g id="XMLID_679_">
					<g id="XMLID_680_">
						<g id="XMLID_681_">
							<path id="XMLID_682_" d="M379.8,597.3c0.3-0.1,0.6-0.1,0.9-0.2c-0.1-0.1-0.1-0.2-0.2-0.3C380.4,597,380.1,597.2,379.8,597.3
								C379.8,597.3,379.8,597.3,379.8,597.3z"/>
						</g>
					</g>
				</g>
			</g>
		</g>
		<g id="XMLID_671_">
			<g id="XMLID_672_">
				<g id="XMLID_673_">
					<g id="XMLID_674_">
						<g id="XMLID_675_">
							<path id="XMLID_676_" class="st7" d="M382.4,598.3c-0.2-0.2-0.4-0.4-0.7-0.6c0,0.2,0,0.4-0.1,0.6
								C381.9,598.3,382.2,598.2,382.4,598.3C382.4,598.2,382.4,598.3,382.4,598.3z"/>
						</g>
					</g>
				</g>
			</g>
		</g>
		<g id="XMLID_665_">
			<g id="XMLID_666_">
				<g id="XMLID_667_">
					<g id="XMLID_668_">
						<g id="XMLID_669_">
							<path id="XMLID_670_" class="st7" d="M400,608.3c0.2,0.1,0.5,0.1,0.7,0.2c-0.1-0.1-0.1-0.3-0.2-0.4
								C400.3,608.2,400.2,608.3,400,608.3C400,608.4,400,608.3,400,608.3z"/>
						</g>
					</g>
				</g>
			</g>
		</g>
		<g id="XMLID_659_">
			<g id="XMLID_660_">
				<g id="XMLID_661_">
					<g id="XMLID_662_">
						<g id="XMLID_663_">
							<path id="XMLID_664_" class="st8" d="M715.6,853.1c8.9,1.3,17.8,2.8,26.8,4c15.9,2,31.7,3.5,47.8,1.5
								c9.2-1.2,15.6-6.8,22.2-12.9c-5.3,0.6-10.6,1.2-15.8,1.9c-30.5,3.6-61.1,3.7-91.6,0c-3.4-0.4-6.9-0.1-10.3-1.2
								c-1.2-0.1-2.6,0.6-3.7-0.6c-1.6,0.1-3.1-0.4-4.5-1c-1.1-0.2-2.3-0.4-3.4-0.6c-2.4,0.2-4.7-1.4-7.2-0.3
								c5.9,2.3,12.4,2.2,18.2,4.9c6.2,0.9,12.3,2.4,18.5,3.8c0.4,0,0.8,0.1,1.2,0.1C714.4,852.7,715,852.9,715.6,853.1z"/>
						</g>
					</g>
				</g>
			</g>
		</g>
		<g id="XMLID_651_">
			<g id="XMLID_653_">
				<g id="XMLID_654_">
					<g id="XMLID_655_">
						<g id="XMLID_656_">
							<path id="XMLID_657_" d="M724.7,868c9.2,0.8,18.4,2.4,27.7,2.4c6,0,12,0.1,17.9-1.6c-7.6-0.5-15.1-0.8-22.7-1.4
								c-13.8-1-27.7-2.2-41.2-5.5c-3.1-0.7-6.1-1.5-9.2-2.2c-5-0.6-9.6-2.7-14.5-3.6c8.9,3.4,17.8,6.5,27.2,8.2
								c2.8,0.5,5.4,1.6,8.2,2.4C720.3,867.1,722.5,867.5,724.7,868z"/>
						</g>
					</g>
				</g>
			</g>
		</g>
		<g id="XMLID_644_">
			<g id="XMLID_645_">
				<g id="XMLID_647_">
					<g id="XMLID_648_">
						<g id="XMLID_649_">
							<path id="XMLID_650_" class="st8" d="M520.6,879.8c2.1-2.1,5.2-2,7.2-3.6c-2,0.2-4.3,0.5-6.5,0.7c-3.1,1.4-6.5,1.4-9.7,2
								c-2,0.3-3.9,0.5-5.9,0.8c-5.6,1.8-11.3,2.7-17.1,3.2c-0.7,0.6-1.6,0.7-2.4,0.6c-3.4,1.7-7.2,1.4-10.8,2
								c-0.3,0.1-0.6,0.1-0.9,0.2c-1.7,0.8-3.4,1.6-5.2,0.2l0.1-0.1c0.1,0.9-0.8,0.8-1.2,1.1c-15.7,3.6-31.5,6.4-47.3,9.3
								c-3.8,0.7-7.7,1.3-11.5,2.2c11.9,3.8,23.9,3.6,35.9,1.1c12.3-2.6,24.6-5.6,36.9-8.4c3.7-1.8,7.8-2.1,11.7-3
								c4.7-1.5,9.2-3.3,14.2-3.9c3.3-2,6.8-3.4,10.7-3.8l0,0C518.9,879.3,519.9,879.9,520.6,879.8z"/>
						</g>
					</g>
				</g>
			</g>
		</g>
		<g id="XMLID_637_">
			<g id="XMLID_638_">
				<g id="XMLID_639_">
					<g id="XMLID_641_">
						<g id="XMLID_642_">
							<path id="XMLID_643_" class="st5" d="M520.6,879.8c-0.7,0.1-1.7-0.5-2,0.7C519.5,880.9,520.1,880.5,520.6,879.8z"/>
						</g>
					</g>
				</g>
			</g>
		</g>
		<g id="XMLID_630_">
			<g id="XMLID_631_">
				<g id="XMLID_632_">
					<g id="XMLID_633_">
						<g id="XMLID_635_">
							<path id="XMLID_636_" class="st5" d="M468,886.9c0.5-0.3,1.3-0.1,1.2-1.1C468.6,885.9,468.2,886.3,468,886.9z"/>
						</g>
					</g>
				</g>
			</g>
		</g>
		<g id="XMLID_623_">
			<g id="XMLID_624_">
				<g id="XMLID_625_">
					<g id="XMLID_626_">
						<g id="XMLID_627_">
							<path id="XMLID_629_" d="M527.9,772.4c7.9,3.1,15.8,6.2,23.8,9.3c0.1-0.3,0.3-0.7,0.4-1C545.1,775.1,536.6,773.4,527.9,772.4
								z"/>
						</g>
					</g>
				</g>
			</g>
		</g>
		<g id="XMLID_615_">
			<g id="XMLID_617_">
				<g id="XMLID_618_">
					<g id="XMLID_619_">
						<g id="XMLID_620_">
							<path id="XMLID_621_" class="st8" d="M735.5,753.9c8-1.9,15.7-4.4,23.2-7c9.3-3.3,18.6-6.7,27.9-10c4.2-1.5,8.3-3.4,11.4-6.8
								c1-1.1,2.8-2,1.9-4c-0.8-1.8-2.6-1.6-4.2-1.6c-3,0-6,0.3-8.7,1.5c-17.2,7.6-34.6,14.9-50.1,25.7
								C736.3,752.1,735.4,752.3,735.5,753.9z"/>
						</g>
					</g>
				</g>
			</g>
		</g>
		<g id="XMLID_608_">
			<g id="XMLID_609_">
				<g id="XMLID_611_">
					<g id="XMLID_612_">
						<g id="XMLID_613_">
							<path id="XMLID_614_" class="st9" d="M703.1,712.1c2.7-2.3,5.8-3.8,9.3-4.2c1.7-0.2,2.7,0.6,2.8,2.2c0.1,1.1,1.6,2.6-0.3,3.2
								c-6.7,2.1-12.9,5.3-19.7,7.1C697.6,717.3,700.2,714.5,703.1,712.1z"/>
						</g>
					</g>
				</g>
			</g>
		</g>
		<g id="XMLID_601_">
			<g id="XMLID_602_">
				<g id="XMLID_603_">
					<g id="XMLID_605_">
						<g id="XMLID_606_">
							<path id="XMLID_607_" class="st9" d="M781.9,684.2c-12.2,2-23.6,6.3-34.3,12.6c-0.1,0.3-0.2,0.7-0.6,0.4
								c-0.1-0.1,0-0.6,0-0.9c7.5-8.2,15.1-16.3,22.6-24.5c0.8-0.9,2.1-1.7,0.9-3.1c-0.9-1.1-2-0.5-3,0.1c-9.4,6-18.5,12.3-27,19.5
								c0.2,0.2,0.4,0.4,0.6,0.7c5.3-3.2,10.5-6.4,15.8-9.6c0.3-0.3,0.6-0.7,1.1-0.2c-0.2,0.2-0.4,0.4-0.7,0.6
								c-8,9.1-16.1,18.2-24.1,27.3c-1.5,1.7-3.5,2.2-5.3,2.3c-1.7,0.1-1.5-2.3-2.2-3.5c-3.9-7.1-5.8-7.9-13.7-6.4
								c-3.8,0.7-7.4,2.1-10.7,4.1c-8,5-14.7,11.3-20.3,18.9c-2.5,3.4-4,7.5-7.1,10.3c-9.2,8.2-20.2,13.3-31.6,18.3
								c0.2-2.8,0.7-5.3,0.1-7.9c-0.9-3.9-2.7-7-6.9-7.9c-3.9-0.9-7,0.8-9.4,3.8c-2.2,2.7-3.2,5.9-3.4,9.3
								c-0.2,4.1,1.3,7.7,4.3,10.6c-2.4,1.4-4.7,2.4-6.6,4c-3.2,2.7-6.6,2.7-10.4,1.9c-7.1-1.4-14.2-2.2-21.3-3.4
								c-19.9-3.6-40-5.9-59.6-11.1c-5.2-1.4-10.1-2.5-12.6-8.5c-2-4.9-8.8-6.8-11.9-3.8c-3.5,3.4-6.4,2.1-10,1.3
								c-1.9-0.4-2.3-1.3-2.5-2.9c-4.9-33-10.2-65.9-15.8-98.8c-0.3-1.6-0.1-2.2,1.5-2.5c3.7-0.6,7.3-1.3,10.9-2.1
								c14.2-3.1,28.1-7,41.9-11.5c14-4.5,28.2-8.6,41.1-15.9c16.8-9.4,32.6-20.4,46.5-33.8c2.5-2.4,4.6-2.9,7.7-2.4
								c21.9,3.5,43.8,6.8,65.7,10.4c10,1.6,20.1,2.9,29.9,5.9c3.7,1.1,7.1,1.7,10.9,1c4-0.7,7.6,0.7,10.6,3.3
								c3.8,3.2,6.4,7.2,8.2,11.8c5.4,13.6,10.8,27.2,16.2,40.8c5.1,12.8,10.2,25.6,15.2,38.4C782.9,682,784.8,683.7,781.9,684.2z"
								/>
						</g>
					</g>
				</g>
			</g>
		</g>
		<g id="XMLID_594_">
			<g id="XMLID_595_">
				<g id="XMLID_596_">
					<g id="XMLID_597_">
						<g id="XMLID_599_">
							<path id="XMLID_600_" class="st9" d="M557.9,571.5c-0.7,1.6-1.6,1.9-3.2,1.4c-15.1-5-30-10.4-43.8-18.6
								c-9.7-5.7-16.5-14.6-24.1-22.5c-0.8-0.8-1-1.8-0.9-2.8l17.6,15.8L557.9,571.5z"/>
						</g>
					</g>
				</g>
			</g>
		</g>
		<g id="XMLID_587_">
			<g id="XMLID_588_">
				<g id="XMLID_589_">
					<g id="XMLID_590_">
						<g id="XMLID_591_">
							<path id="XMLID_593_" class="st9" d="M371.4,905.1c1,0.1,2,0.5,2.7-0.6c0.5-0.9,0-1.6-0.5-2.4c-2.9-4.5-6.1-8.8-10-12.5
								c-1.9-1.8-2.3-3.3-1.6-5.8c1.4-5.1,3.3-9.9,6.3-14.2c8.5-12.2,18.1-23.5,29.7-32.7c15.3-12.1,33.4-15,52.5-11.7
								c7.8,1.3,14.6,5.4,22.1,7.7c9.3,2.9,18.4,5,28.4,4.7c17-0.6,32.9,3.2,46.5,14.4c7.8,6.4,15.9,12.3,23.4,19
								c3.1,2.8,6.4,5.4,9.3,8.8c-0.8,0.3-1.3,0.6-1.8,0.8c-12,4.1-23.9,8.2-35.9,12.2c-35.1,11.7-70.1,23.3-106.6,30
								c-13.6,2.5-27.3,3.5-41.1,1.5c-14.3-2-24.5-10.6-34.4-20c-1.2-1.1-1.2-2.3-0.5-4.1C363.6,902.8,367.2,904.6,371.4,905.1z"/>
						</g>
					</g>
				</g>
			</g>
		</g>
		<g id="XMLID_579_">
			<g id="XMLID_581_">
				<g id="XMLID_582_">
					<g id="XMLID_583_">
						<g id="XMLID_584_">
							<path id="XMLID_585_" class="st9" d="M303.8,647.6c2.1-14.4,8.1-27.5,14.1-40.6c1.3-2.8,3.1-5.7,5.8-7.1
								c11.4-6,22.7-12.1,35.7-14.4c12-2.1,24.1-3.8,35.6-7.6c23-7.4,45.7-15.7,67.1-27c1.2-0.6,2-1.1,3.2,0.1
								c7.6,7.8,16.6,13.9,24.9,21c10.5,9,21.6,17,34.1,23c2.3,1.1,4,1,6.2-0.1c13.5-6.7,26.6-14.2,39.5-22c0.1-0.7,0.8-0.8,1.3-1
								c0.4-0.4,1.2-0.7,1.4-0.2c0.2,0.8-0.7,0.4-1.1,0.6c-0.1,0.8-0.7,0.9-1.2,1.1c-8.7,8.2-18.4,15-28.3,21.5
								c-22.2,14.6-46.2,25.8-70.4,36.6c-2.6,1.1-3.5,2.4-3.1,5.3c1.6,10.7,3,21.4,4.4,32.1c2.9,21.6,5.7,43.3,8.6,64.9
								c0.3,2.4,0.1,3.5-2.7,3c-11.6-2.1-23.2-1.9-34.6,1.5c-1.3,0.4-1.9,0.3-2.5-1.2c-6.9-17-15.8-33-24.3-49.3
								c-4.4-8.5-9-16.9-13.5-25.4c6.3,23.8,11.8,47.8,17.4,72.1c-1-0.4-1.5-0.6-2-0.8c-30.8-15.2-62.9-16.3-95.7-8.2
								c-1.2,0.3-3.3,0.2-3.3,1.8c0,1.9,2.1,1.3,3.3,1.5c14.9,2.5,29.9,4.9,44.8,7.3c2.9,0.5,5.8,1.1,8.8,1.7
								c-16.2,1.6-31.4,5.4-45.8,13.4c0.5,0.2,0.6,0.3,0.7,0.3c0.8-0.3,1.6-0.6,2.4-0.9c17.5-6.9,35.6-10.5,54.6-8.7
								c8.8,0.8,17.5,2.3,26.3,2.4c1.1,0,2.9,0.7,3.1-1c0.2-1.8-1.6-1.6-2.7-1.7c-22.3-2.8-44.3-7.3-66.4-11
								c-6.8-1.2-13.6-2.2-21.3-3.5c6.8-1.9,12.8-3,18.8-3.5c25.7-2.2,50.1,2.3,73,14.7c2.1,1.1,3.1,2.5,3.5,4.7
								c1,5.1,2.3,10.2,3.4,15.3c2.3,10.6,2.7,21.4,1.6,32.2c-0.2,1.9-0.3,3.8-3,3.9c-7.1,0.2-13.6,2.8-19.7,6.1
								c-25.3,13.9-46.2,32.9-63.4,55.9c-8.4,11.3-14.8,23.6-18.6,37.8c-5.9-9.1-12.2-17.1-15.9-26.9c-3.2-8.6-2.6-16.6,2.6-24.4
								c9-13.6,20.5-24.8,33-35.1c16.8-13.8,36-23.7,54.7-34.4c4.7-2.7,9.3-5.4,13.9-8.2c-0.2-0.3-0.4-0.7-0.6-1
								c-43.7,5.3-79.9,25.1-110.1,57.2c-3.6-17.7-4.1-35.3-4.2-52.9c-0.2-31.1,1.9-62,4.4-92.9
								C302.3,666.1,302.5,656.8,303.8,647.6z"/>
						</g>
					</g>
				</g>
			</g>
		</g>
		<g id="XMLID_572_">
			<g id="XMLID_573_">
				<g id="XMLID_575_">
					<g id="XMLID_576_">
						<g id="XMLID_577_">
							<path id="XMLID_578_" class="st9" d="M508.2,823c-14.2-0.3-26.7-4.6-38.5-11.9c-5.4-3.3-10.5-7-15.8-10.5
								c-2.1-1.4-3.1-2.9-3.2-5.6c-0.4-10.8-1.4-21.5-3.4-32.1c-0.6-3.4,0.1-5.1,3.6-6.2c4.9-1.4,9.5-3.5,14.2-5.4
								c4.2-1.7,8.6-2.4,13.1-1.9c15.5,1.5,30.3,5.7,45,10.9c2.4,0.7,4.7,1.6,7.1,2.2c9.6,2.6,18.2,7.9,28.2,9.2
								c5.8,0.8,11.5,1.9,17.2,2.9c35.5,6.4,71,11.6,107.2,7.8c9.8-1.2,19.7-2.3,29.5-3.7c20.9-3.1,41.8-7.4,63.1-4.5
								c4,0.5,8.1-0.1,12.2-1.1c19.4-4.8,42.5,2,54.3,21.4c6.7,11.1,8.4,33-4.8,43.7c-0.8,0.7-1.1,2.2-2.9,1.5
								c-4.3-1.7-5.7-1.1-7.9,3c-1.7,3.2-3.3,6.3-5.7,9.1c-1.2,1.4-3.8,2.6-2.6,4.8c1.1,2.1,3.6,0.8,5.5,0.9c0.2,0,0.3,0.3,0.6,0.6
								c-1.8,6.3-6.1,10.2-11.8,12.9c-6,2.8-12.4,4.4-18.6,6.3c-17.9,5.5-36,9.2-54.8,8.7c-1,0.4-1.9,0.3-2.9-0.1
								c-1.8,0.3-3.7,0.3-5.5-0.1c-0.9-0.2-2,0.6-2.8-0.5c-0.2,0.2-0.4,0.7-0.6,0.7c-12.8-1.4-25.5-3.2-38.1-6.4
								c-24.5-6.2-47.7-15.8-70.7-26.1c-20-9-40.4-17.2-62-21.6C540.4,828.5,524.6,823.3,508.2,823z"/>
						</g>
					</g>
				</g>
			</g>
		</g>
		<g id="XMLID_565_">
			<g id="XMLID_566_">
				<g id="XMLID_567_">
					<g id="XMLID_569_">
						<g id="XMLID_570_">
							<path id="XMLID_571_" class="st9" d="M743.2,705c1.5-2,3-3.3,4.6-4.4c9.6-6.3,20-10.1,31.3-11.6c7.7-1.1,5.6-2.3,8.6,5.2
								c0.1,0.2-0.1,0.4-0.1,0.5C772,694,758.1,700.8,743.2,705z"/>
						</g>
					</g>
				</g>
			</g>
		</g>
		<g id="XMLID_558_">
			<g id="XMLID_559_">
				<g id="XMLID_560_">
					<g id="XMLID_561_">
						<g id="XMLID_563_">
							<path id="XMLID_564_" class="st9" d="M793.1,758.6c-4.4,5.3-9.8,7-16.5,6c-3.9-0.6-7.9-0.8-11.8-1c-0.8,0-1.4,0.1-1.6-1.1
								c4-1.2,8-2.3,12-3.5c3.9-1.2,7.7-2.6,10.8-5.5c0.9-0.9,1.7-1.8,1.4-3.2c-0.4-1.7-1.8-1.9-3.2-2c-4-0.2-7.9,0.8-11.5,2.4
								c-7,3.1-13.9,6.5-20.5,10.4c-1.9,1.1-3.8,1.6-6,1.6c-8.2,0-16.3,0.6-24.5,1.4c-8.5,0.8-16.8,2.3-25.4,2.4
								c-17.9,2.4-35.9,3.5-54,2c0.4-1.5,1.6-1.8,2.5-2.3c9.3-6.1,18.5-12.4,27.2-19.4c10.7-8.6,22.5-15.2,35.1-20.5
								c14.5-6.1,29.5-10.7,44.2-16.2c4.2-1.8,8.2-4.1,12.6-5.3c5.6-1.6,11.4-1.6,16.8,1.3c2.1,0.8,4.1,1.8,4.5,4.2
								c-16.9,4.2-33.1,9.8-48.9,16.7c-3.1,1.3-6,3.1-8,6.5c4.5,0.8,8.6,0.2,12.4-1.1c14.1-4.8,28.7-7.6,43.4-10.2
								c1.9-0.4,3.9-0.9,5.8-1.1c4-0.4,8.3-1.4,11.9,0.9c6.5,4.2,10.6,16.7,3,24.1C800.8,750.2,796.8,754.3,793.1,758.6z"/>
						</g>
					</g>
				</g>
			</g>
		</g>
		<g id="XMLID_551_">
			<g id="XMLID_552_">
				<g id="XMLID_553_">
					<g id="XMLID_554_">
						<g id="XMLID_555_">
							<path id="XMLID_557_" d="M695.2,720.4l-0.1,0.1L695.2,720.4C695.2,720.4,695.2,720.4,695.2,720.4
								C695.2,720.4,695.2,720.4,695.2,720.4z"/>
						</g>
					</g>
				</g>
			</g>
		</g>
		<g id="XMLID_506_">
			<path id="XMLID_521_" class="st8" d="M869.2,799.1c-3.1-15-10.6-27.6-19.1-39.9c-1.1-1.5-2.1-3-3.2-4.6c-4.2-4.5-8-9.4-12.6-13.6
				c-6.6-6-11.2-13.7-14.8-21.6c-6-13-11.5-26.4-16.1-40c-10.6-31.5-25.1-61.2-39.8-90.8c-6.8-13.6-19-20.8-33.3-24.6
				c-2.9-0.8-5.7,0.5-8.5-0.2c-10.6-2.6-21.4-4.4-32.1-6.3c-14.7-2.7-29.3-6.2-43.7-10.2c-6.6-3.7-11.5-9.7-15.2-16.2l-5.5-25
				l4.3-7.8l1.5-9.9l17.6-38.5l7.8-34.7l3.7-21.9l0.1-2.1c1.8-2.4,2.1-5,2.2-5.2c0-0.1,1.5-11.7,2.2-14.6c0.6-2.2,4.4-4.9,5.6-5.7
				c0.6-0.4,0.9-1,0.9-1.7v-7.4c0-0.3-0.1-0.5-0.2-0.8l8.3-2.7l4.2-3.2l3.3-6.9l6.1-17.9l2-8.8l1.2-15.9l-2.8-17.2l-9.3-20.4
				l-9.4-22.4L659.3,211l-16-22.3l-19.2-20.5l-8.2-6.3l-40.8-16.5l-17.1-7.8c-3.1-2.5-12.1-7.4-36.6-10l-18.3,0l-25.2,5.2l-16,7.7
				l-20.1,15.5l-11.6,15.6l-29.3,45.8l-23.1,31l-28.4,38.5l-6.6,13.7l1.5,4.9l3.8,8.5l13.5,42l7.6,6.9c0.7,0.8,1.5,1.6,2.3,2.4
				c0.9,1.4,1.6,2.3,1.7,2.4l4.2,3.1c2,1.8,4.1,3.5,6.3,5.3l13.9,12.6l7.5,3.1c6.6,4.5,11.3,7.4,11.3,7.4s3.1,0.2,7.1,0.2l17.2,7.1
				l0.2-0.3l0.8,1.7l2.4,9l4.4,10.1l5.8,6l1.4,1.3c-3.1,3.4-5.2,8.8-5.2,14.8c0,10.2,5.8,18.6,12.9,18.6c5.1,0,9.5-4.3,11.6-10.4
				l3.6,8.9l-14.4,45.1v0c-1.5,4.1-3.5,8-4.8,12.1c-1.5,4.7-3.7,8.4-8.9,9.9c-2.4,0.7-4.5,2.5-6.8,3.7c-6.4,3.4-12.3,7.9-19.4,10.2
				c-16.3,5.1-32.7,9.9-49.6,13c-14.3,2.6-28,7.6-42.1,10.8c-10.3,2.3-17.7,8.4-23,17.4c-5.1,8.7-9.6,17.5-12.3,27.3
				c-3.4,12.4-7.7,24.5-9.2,37.4c-0.8,6.5-1.3,13-2.4,19.5c-5.5,30.3-8.1,60.9-8.1,91.8c0,5.3-0.1,10.6-0.1,15.9
				c1,10.9,1.9,21.9,2.9,32.8c1.2,7.4,2.4,14.8,3.7,22.1c1.5,4.2,2.5,8.1,0.7,12.8c-2.5,6.6-1.7,13.4,0.9,20
				c4.2,10.8,10.8,20.3,17.5,29.7c4.2,5.8,8.9,11.2,13.5,16.7c7,8.3,15.9,12.6,26.4,13.8c5.4,0.6,9.7,2.7,13.9,6
				c16.4,13,35.7,15.7,55.8,15c26-0.9,50.6-7.9,74.8-16.7c9.4-3.4,18.5-4.6,28.5-3.8c55.3,4.3,108.4-5.4,159.3-27.1
				c3.2-1.4,6.1-1.1,9.3-0.7c18.1,2.1,36,5.8,54.2,6.3c27,0.7,52.9-4.9,78.4-13.4c7.3-2.4,14.8-4.3,21.1-8.9
				c12.5-8.9,20.8-21.2,26.4-35.2C871.3,833.4,872.8,816.6,869.2,799.1z M801.9,722c6.5,4.2,10.6,16.7,3,24.1
				c-4.1,4-8.1,8.1-11.7,12.5c-4.4,5.3-9.8,7-16.5,6c-3.9-0.6-7.9-0.8-11.8-1c-0.8,0-1.4,0.1-1.6-1.1c4-1.2,8-2.3,12-3.5
				c3.9-1.2,7.7-2.6,10.8-5.5c0.9-0.9,1.7-1.8,1.4-3.2c-0.4-1.7-1.8-1.9-3.2-2c-4-0.2-7.9,0.8-11.5,2.4c-7,3.1-13.9,6.5-20.5,10.4
				c-1.9,1.1-3.8,1.6-6,1.6c-8.2,0-16.3,0.6-24.5,1.4c-8.5,0.8-16.8,2.3-25.4,2.4c-17.9,2.4-35.9,3.5-54,2c0.4-1.5,1.6-1.8,2.5-2.3
				c9.3-6.1,18.5-12.4,27.2-19.4c10.7-8.6,22.5-15.2,35.1-20.5c14.5-6.1,29.5-10.7,44.2-16.2c4.2-1.8,8.2-4.1,12.6-5.3
				c5.6-1.6,11.4-1.6,16.8,1.3c2.1,0.8,4.1,1.8,4.5,4.2c-16.9,4.2-33.1,9.8-48.9,16.7c-3.1,1.3-6,3.1-8,6.5
				c4.5,0.8,8.6,0.2,12.4-1.1c14.1-4.8,28.7-7.6,43.4-10.2c1.9-0.4,3.9-0.9,5.8-1.1C794,720.7,798.3,719.8,801.9,722z M695.2,720.5
				l0-0.2c0,0,0.1,0,0.1,0c2.3-3.1,4.9-5.8,7.9-8.2c2.7-2.3,5.8-3.8,9.3-4.2c1.7-0.2,2.7,0.6,2.8,2.2c0.1,1.1,1.6,2.6-0.3,3.2
				c-6.7,2.1-12.9,5.3-19.7,7.1c0,0,0,0-0.1,0.1L695.2,720.5z M787.7,694.3c0.1,0.2-0.1,0.4-0.1,0.5c-15.6-0.8-29.5,5.9-44.4,10.2
				c1.5-2,3-3.3,4.6-4.4c9.6-6.3,20.1-10.1,31.3-11.6C786.9,688,784.8,686.8,787.7,694.3z M691.5,579.8c10,1.6,20.1,2.9,29.9,5.9
				c3.7,1.1,7.1,1.7,10.9,1c4-0.7,7.6,0.7,10.6,3.3c3.8,3.2,6.4,7.2,8.2,11.8c5.4,13.6,10.8,27.2,16.2,40.8
				c5.1,12.8,10.2,25.6,15.2,38.4c0.4,1,2.3,2.7-0.7,3.2c-12.2,2-23.6,6.3-34.3,12.6c-0.1,0.3-0.2,0.7-0.6,0.4c-0.1-0.1,0-0.6,0-0.9
				c7.5-8.2,15.1-16.3,22.6-24.5c0.8-0.9,2.1-1.7,0.9-3.1c-0.9-1.1-2-0.5-3,0.1c-9.4,6-18.5,12.3-27,19.5c0.2,0.2,0.4,0.4,0.6,0.7
				c5.3-3.2,10.5-6.4,15.8-9.6c0.3-0.3,0.6-0.7,1.1-0.2c-0.2,0.2-0.4,0.4-0.7,0.6c-8,9.1-16.1,18.2-24.1,27.3
				c-1.5,1.7-3.5,2.2-5.3,2.3c-1.7,0.1-1.5-2.3-2.2-3.5c-3.9-7.1-5.8-7.9-13.7-6.4c-3.8,0.7-7.4,2.1-10.7,4.1
				c-8,5-14.7,11.3-20.3,18.9c-2.5,3.4-4,7.5-7.1,10.3c-9.2,8.2-20.2,13.3-31.6,18.3c0.2-2.8,0.7-5.3,0.1-7.9
				c-0.9-3.9-2.7-7-6.9-7.9c-3.9-0.9-7,0.8-9.4,3.8c-2.2,2.7-3.2,5.9-3.4,9.3c-0.2,4.1,1.3,7.7,4.3,10.6c-2.4,1.4-4.7,2.4-6.6,4
				c-3.2,2.7-6.6,2.7-10.4,1.9c-7.1-1.4-14.2-2.2-21.3-3.4c-19.9-3.6-40-5.9-59.6-11.1c-5.2-1.4-10.1-2.5-12.6-8.5
				c-2-4.9-8.8-6.8-11.9-3.8c-3.5,3.4-6.4,2.1-10,1.3c-1.9-0.4-2.3-1.3-2.5-2.9c-4.9-33-10.2-65.9-15.8-98.8
				c-0.3-1.6-0.1-2.2,1.5-2.5c3.7-0.6,7.3-1.3,10.9-2.1c14.2-3.1,28.1-7,41.9-11.5c14-4.5,28.2-8.6,41.1-15.9
				c16.8-9.4,32.6-20.4,46.5-33.8c2.5-2.4,4.6-2.9,7.7-2.4C647.7,572.9,669.6,576.2,691.5,579.8z M557.9,571.5
				c-0.7,1.6-1.6,1.9-3.2,1.4c-15.1-5-30-10.4-43.8-18.6c-9.7-5.7-16.5-14.6-24.1-22.5c-0.8-0.8-1-1.8-0.9-2.8l0,0l0,0l2.5-24.3
				l2.8-4.7l2.9-9.9c11.9,16.8,25.4,28.7,31.8,32.5c2.8,1.7,27.9,16.6,36.3,16.9c1.6,0,3.1,0.1,4.5,0.1c17,0,27.4-3.5,39.7-19.3l0,0
				c0.1-0.1,1.9-2.6,4.6-6.6l5.9,30.8L557.9,571.5z M649.3,391.7l-0.1,0.6c-0.2,0.1-0.4,0.1-0.6,0.2l-2.5,0.8
				c-9.1,2.9-33.1,1.5-37.4,0.7c-4.4-0.8-7.9-2.4-10.9-7.6c-3.1-5.3-4.5-16.8-2.8-22.3c1.3-4,6.4-5,9.1-5.2c-1.8,1.1-3.5,2.3-5,3.8
				l-3.4,3.4l4.1-2.6c0.1-0.1,5.1-3.1,11.7-5.3l16.9-1.7c0.2,0,0.4,0.1,0.5,0.1c4.6,1.2,8.2,4.1,10.8,8.6c0.6,0.7,1.2,1.1,1.6,1.1
				c0.1,0,0.3,0,0.4-0.1c0.5-0.3,0.6-1.1-0.4-3.9c-0.9-2.4-3.3-4.3-5.8-5.8c4.2,0.2,10.3,0.5,15.3,0.6c0,0.1,0.1,0.2,0.1,0.2
				L649.3,391.7z M655,347.6l-3.7,0.3l-0.2,4.7c-20.2-1.7-46.1,1.4-51,2.7c-5.3,1.3-28.6,0-28.8,0h0c-45.1-11.9-76.8-1.8-78.7-1.1
				h-11.9l-19.6-7.6c-0.1-0.4-0.1-0.9-0.2-1.4l2.9-18.5c3-10.2,7.1-19.3,7.1-19.3c1.3-1.8,2.7-3.6,4.2-5.2
				c10.8-9.4,15.8-14.1,18.2-16.5c10-7,21.2-11.9,32.8-15.1l25.2-4.3c3.5-0.3,7-0.4,10.6-0.4c11.6,0,23.1,1.4,33.9,3.8l12.8,3.5
				c3.1,1,6.2,2.1,9.2,3.3C657.2,292.4,655.7,338.4,655,347.6z M552.5,364.6c-0.1-0.1-0.2-0.2-0.3-0.4c-0.1-0.1-0.1-0.2-0.2-0.3
				c-3-4.1-5.2-6.8-6.8-8.6c5.1,0.5,10.6,1.3,16.6,2.5c4.3,0.8,4.7,8,4.9,11.9c0.2,4-2.1,13.5-6.2,19.2c-3.9,5.5-16.2,6.1-16.3,6.1
				c-38.1,1.3-42-2.7-43.7-4.4c-0.3-0.3-0.6-0.6-0.9-0.8c-1.8-1-6.3-9.4-5.7-22.3c0.4-9.5,7.7-11.4,14.7-11.9l1-0.1
				c5.8-0.5,12.2-1,19.7-1c3,0,6.1,0.1,9.4,0.3c5.1,3.8,11.2,8.6,12.6,10.1c0.3,0.4,0.5,0.6,0.7,0.6c0.1,0,0.2,0,0.3-0.1
				C552.7,365.4,552.8,365.1,552.5,364.6z M461.6,359.7c0.2,0.1,0.5,0.1,0.7,0.2c0.3,1.9,0.5,3.1,0.6,3.7c-0.1,0-0.3,0.1-0.7,0.1
				c-1.3,0-3.9-0.6-9.2-3.4l-1.6-0.9c-3.6-1.9-6.2-3.3-8.4-3.9l3.8,0.8l15,5.8L461.6,359.7z M657.1,254.3l-1.7-11.9
				c0.9,3.1,2,6.5,3.3,9.8c4.5,11.2,3.7,33,3.6,33.2l0,1l0.9-0.5c7.8-4.5,11.2-9.9,12.7-14.6l2.5,5.6c-2.9,4.6-5.4,11.8-7.7,18.3
				c-1.9,5.5-3.7,10.7-5.4,13.1c-1.8,2.7-4.4,4.5-5.6,5.3c-0.9,0.6-1.2,0.8-1,1.3c0.1,0.2,0.2,0.4,0.5,0.4c0.4,0,1.2-0.2,2.9-0.6
				c1-0.2,2.2-0.5,3.7-0.9c8.5-1.9,14.9-12.2,18.2-18.8l0.9,5.6l-0.9,13.4l-1.7,7.5l-5.6,16.7l-2,4.2l-0.6,0.4l-12.4,4l-4.4,0.4
				l0-1.9l-1.1,0c0,0.1,0,0.8-0.1,2l-0.2,0c0.7-9.8,1.7-56.1-38.1-72.2c-0.8-0.3-1.6-0.6-2.4-0.9l0.2-0.5
				c-17.4-8.1-43.2-12.8-65.7-12c-9,0.3-18.5,1.1-28.2,2.2c-26.9,3.2-33.2-10.5-34.5-19c-1.1-6.9-0.1-8.9,0.7-9.4
				c0.5-0.4,1.1-0.2,1.1-0.2l0.2,0.1l0.2-0.1c0.7-0.3,72.6-27.6,114.5-11.2c41.9,16.3,51.7,57.8,51.8,58.2l1.1,4.9l0-5.1
				c0-2.2-1.1-5.3-2.1-8.3c-1.3-3.9-2.8-8.3-1.2-8.8C657.6,263.9,657.1,255.3,657.1,254.3z M639.1,238.4c0.1-0.3,0.2-0.5,0.4-0.7
				c2.9-2,1.9-15.4,0.5-30.1c-0.2-2.1-0.4-4-0.5-5.4l10.3,14.3l1.6,3l0.6,4.9l-0.1,0c0,0.3,1.9,26.5,1.9,31.9c0,1.6-0.4,2.7-1.2,3.4
				c-0.9,0.7-2,0.7-2.4,0.6C646.6,255.3,638.3,242.2,639.1,238.4z M610.4,171.6l6,4.5l2.7,2.9c3.4,5.7,13.2,32.4,16.6,43.3
				c2.6,8.6,0.8,13.9-0.7,14.7c-0.2,0.1-0.6,0.2-0.9-0.3c-1.9-2.5-22-14-25-15.8c0.4-1.8,2-9.3,4.8-22.5c2.2-10.4-2.7-21.6-6.3-28
				L610.4,171.6z M567,153.8c7.2,10.2,20.1,27.8,28.5,33.9c10.3,7.5,9.5,27.2,9.2,31.4c-8-3.9-30.9-6.4-34.6-6.8
				c0-2.1-0.2-10.6-0.2-19.6c0-10.3-9.5-32.3-16-43.6c-0.4-0.7-0.8-1.3-1.2-1.9L567,153.8z M439.2,177.9l10.6-14.3l17.9-13.9
				l13.7-6.6l22.7-4.7l16.3,0c12.8,1.4,20.5,3.4,25,5c-1.6,0.7-2.5,2.3-2.5,2.3c-0.2,0.2-4,4.5-3.2,9c0.4,2.3,1.9,4.2,4.5,5.7
				c8.7,4.9,22,31,22,35.1c0,3.6-1.3,13.6-1.7,16c-2-0.1-9.5-0.3-23.2,2.7c-3.7,0.8-6.5,0.3-8.3-1.6c-4.5-4.6-2-15.8-2-15.9l0-0.1
				l0-0.1c-0.3-1.4-8.4-34.1-17.6-36.8c-1.9-0.6-3.4-0.3-4.4,0.7c-3.2,3.3,0.4,14.1,0.6,14.6l0.1,0.2l0.2,0.1
				c0.1,0.1,10.1,6.8,14.4,17c4.2,10.1-2.9,22.6-5.1,24.4c-2.3,1.9-26.1,11.1-30.2,8.5c-1.3-0.8-4.6-5.2-8.8-10.7
				c-9.6-12.8-24.2-32.1-34.5-34.3c-3.4-0.7-6.1-0.6-8,0.4L439.2,177.9z M416.7,397.9c-0.5-0.3-2-1.2-4-2.6l4.9,2.6
				C417.2,398,416.9,397.9,416.7,397.9z M407.9,240.3c0.1,0,9.7-0.4,15.6,6.9c2.5,3.1,4.9,4.9,7,5.3c-5,3.2-16.4,10.7-23.8,18.1
				c-9,9-28.8,12.2-42,13.8l21.8-29.5l23.2-31.2l24.2-37.9c-0.4,2.9,0.4,5.6,0.5,5.9c0.4,0.7,9.5,16.8,20.1,17.8
				c10.2,0.9,27,17.3,28.4,20.5c0.1,0.2,0.1,0.4,0,0.7c-0.7,1.6-5.4,3.3-9.1,4.6c-2.2,0.8-4.3,1.5-5.6,2.2c-0.6,0.3-1.2,0.7-1.9,1
				c-8.7,4.7-19.5,10.6-33.4,5c-15.1-6.1-25-4.4-25.4-4.3L407.9,240.3z M441.5,355.3c-0.3,0-0.5-0.1-0.8-0.1c-4,0-5.5,4.1-6.6,8.5
				c0,0.2-0.1,0.3-0.1,0.5v-2.7l4.2-6.8L441.5,355.3z M438.6,389.2l-4.5-10.7v-4c1.3,7.5,4.7,13.6,4.9,14c0,0,0,0,0,0L438.6,389.2z
				 M463.4,464.7c-5.8,0-10.2-6.9-10.2-16.1c0-5.4,1.6-10.1,4-13l3.4,3.2l8.1-2l2,9.6l2.5,6.1C472.1,459.7,468.3,464.7,463.4,464.7z
				 M476.6,419.9l-11.3-0.8l-2.5,6.7l-5.1-5.2l-3.2-7.1l-2.4-9.1l-10-20.8l-2.5,3.9c-1.3-2.5-6.8-13.9-4.4-23.6
				c1.3-5.5,2.9-7.6,5.5-7.6c2.6,0,6.3,2.1,11.8,5c5.3,2.8,8.1,3.5,9.7,3.5c1.7,0,1.8-0.9,1.8-0.9s-0.1-1-0.5-3.6
				c6.5,2,13.8,4,17.9,4.4c7.2,0.9,7.5,2.6,7.5,2.6l0,0.1l2,11.9c3.3,13.5,8.2,16.2,14.3,18.3c3.1,1.1,13.6,2,24.6,2
				c9.8,0,19.9-0.7,25.7-2.8c12.2-4.3,14.7-17.3,15.6-26.6c0.3-3.2,1.3-5.5,3-6.9c2.8-2.3,6.9-1.8,10-1.5c0.7,0.1,1.3,0.1,1.9,0.2
				c1.8,0.1,3.1,0.6,3.8,1.5c0.9,1.2,0.6,2.7,0.6,2.8c0,0.7-0.1,18.1,4.5,23.2c0.8,0.8,1.3,1.6,1.8,2.2c2.6,3.2,3.5,4.4,15.9,6.9
				c10.9,2.2,26.3,0.3,36-1.9l-2.7,16.2l-7.5,33.4l-17.7,38.8l-1.4,9.4l-5.4,9.7l0.3,1.3c-6.2,10.1-12.3,18.2-17.1,21.8
				c-5.6,4.3-26,17.1-52.6,2.1c-20-11.3-38.4-27.2-46.8-40.6c-0.6-1-1.3-2.1-2-3.3l1.2-4.2l-15.2-37.7L476.6,419.9z M342.3,856.2
				c-8.4,11.3-14.8,23.6-18.6,37.8c-5.9-9.1-12.2-17.1-15.9-26.9c-3.2-8.6-2.6-16.6,2.6-24.4c9-13.6,20.5-24.8,33-35.1
				c16.8-13.8,36-23.7,54.7-34.4c4.7-2.7,9.3-5.4,13.9-8.2c-0.2-0.3-0.4-0.7-0.6-1c-43.7,5.3-79.9,25.1-110.1,57.2
				c-3.6-17.7-4.1-35.3-4.2-52.9c-0.2-31.1,1.9-62,4.4-92.9c0.7-9.3,0.9-18.6,2.3-27.8c2.1-14.4,8.1-27.5,14.1-40.6
				c1.3-2.8,3.1-5.7,5.8-7.1c11.4-6,22.7-12.1,35.7-14.4c12-2.1,24.1-3.8,35.6-7.6c23-7.4,45.7-15.7,67.1-27c1.2-0.6,2-1.1,3.2,0.1
				c7.6,7.8,16.6,13.9,24.9,21c10.5,9,21.6,17,34.1,23c2.3,1.1,4,1,6.2-0.1c13.5-6.7,26.6-14.2,39.5-22c0.1-0.7,0.8-0.8,1.3-1
				c0.4-0.4,1.2-0.7,1.4-0.2c0.2,0.8-0.7,0.4-1.1,0.6c-0.1,0.8-0.7,0.9-1.2,1.1c-8.7,8.2-18.4,15-28.3,21.5
				c-22.2,14.6-46.2,25.8-70.4,36.6c-2.6,1.1-3.5,2.4-3.1,5.3c1.6,10.7,3,21.4,4.4,32.1c2.9,21.6,5.7,43.3,8.6,64.9
				c0.3,2.4,0.1,3.5-2.7,3c-11.6-2.1-23.2-1.9-34.6,1.5c-1.3,0.4-1.9,0.3-2.5-1.2c-6.9-17-15.8-33-24.3-49.3
				c-4.4-8.5-9-16.9-13.5-25.4c6.3,23.8,11.8,47.8,17.4,72.1c-1-0.4-1.5-0.6-2-0.8c-30.8-15.2-62.9-16.3-95.7-8.2
				c-1.2,0.3-3.3,0.2-3.3,1.8c0,1.9,2.1,1.3,3.3,1.5c14.9,2.5,29.9,4.9,44.8,7.3c2.9,0.5,5.8,1.1,8.8,1.7
				c-16.2,1.6-31.4,5.4-45.8,13.4c0.5,0.2,0.6,0.3,0.7,0.3c0.8-0.3,1.6-0.6,2.4-0.9c17.5-6.9,35.6-10.5,54.6-8.7
				c8.8,0.8,17.5,2.3,26.3,2.4c1.1,0,2.9,0.7,3.1-1c0.2-1.8-1.6-1.6-2.7-1.7c-22.3-2.8-44.3-7.3-66.4-11c-6.8-1.2-13.6-2.2-21.3-3.5
				c6.8-1.9,12.8-3,18.8-3.5c25.7-2.2,50.1,2.3,73,14.7c2.1,1.1,3.1,2.5,3.5,4.7c1,5.1,2.3,10.2,3.4,15.3
				c2.3,10.6,2.7,21.4,1.6,32.2c-0.2,1.9-0.3,3.8-3,3.9c-7.1,0.2-13.6,2.8-19.7,6.1C380.3,814.2,359.5,833.2,342.3,856.2z
				 M578.4,880.7c-12,4.1-23.9,8.2-35.9,12.2c-35.1,11.7-70.1,23.3-106.6,30c-13.6,2.5-27.3,3.5-41.1,1.5c-14.3-2-24.5-10.6-34.4-20
				c-1.2-1.1-1.2-2.3-0.5-4.1c3.7,2.5,7.3,4.4,11.5,4.8c1,0.1,2,0.5,2.7-0.6c0.5-0.9,0-1.6-0.5-2.4c-2.9-4.5-6.1-8.8-10-12.5
				c-1.9-1.8-2.3-3.3-1.6-5.8c1.4-5.1,3.3-9.9,6.3-14.2c8.5-12.2,18.1-23.5,29.7-32.7c15.3-12.1,33.4-15,52.5-11.7
				c7.8,1.3,14.6,5.4,22.1,7.7c9.3,2.9,18.4,5,28.4,4.7c17-0.6,32.9,3.2,46.5,14.4c7.8,6.4,15.9,12.3,23.4,19
				c3.1,2.8,6.4,5.4,9.3,8.8C579.5,880.2,578.9,880.5,578.4,880.7z M837.1,838.1c-0.8,0.7-1.1,2.2-2.9,1.5c-4.3-1.7-5.7-1.1-7.9,3
				c-1.7,3.2-3.3,6.3-5.7,9.1c-1.2,1.4-3.8,2.6-2.6,4.8c1.1,2.1,3.6,0.8,5.5,0.9c0.2,0,0.3,0.3,0.6,0.6c-1.8,6.3-6.1,10.2-11.8,12.9
				c-6,2.8-12.4,4.4-18.6,6.3c-17.9,5.5-36,9.2-54.8,8.7c-1,0.4-1.9,0.3-2.9-0.1c-1.8,0.3-3.7,0.3-5.5-0.1c-0.9-0.2-2,0.6-2.8-0.5
				c-0.2,0.2-0.4,0.7-0.6,0.7c-12.8-1.4-25.5-3.2-38.1-6.4c-24.5-6.2-47.7-15.8-70.7-26.1c-20-9-40.4-17.2-62-21.6
				c-16-3.3-31.8-8.5-48.2-8.8c-14.2-0.3-26.7-4.6-38.5-11.9c-5.4-3.3-10.5-7-15.8-10.5c-2.1-1.4-3.1-2.9-3.2-5.6
				c-0.4-10.8-1.4-21.5-3.4-32.1c-0.6-3.4,0.1-5.1,3.6-6.2c4.9-1.4,9.5-3.5,14.2-5.4c4.2-1.7,8.6-2.4,13.1-1.9
				c15.5,1.5,30.3,5.7,45,10.9c2.4,0.7,4.7,1.6,7.1,2.2c9.6,2.6,18.2,7.9,28.2,9.2c5.8,0.8,11.5,1.9,17.2,2.9
				c35.5,6.4,71,11.6,107.2,7.8c9.8-1.2,19.7-2.3,29.5-3.7c20.9-3.1,41.8-7.4,63.1-4.5c4,0.5,8.1-0.1,12.2-1.1
				c19.4-4.8,42.5,2,54.3,21.4C848.7,805.5,850.4,827.4,837.1,838.1z"/>
			<path id="XMLID_517_" class="st8" d="M508.6,366.9c0.3,0.2,0.5,0.4,0.8,0.6c2.5,1.9,6.9,5.4,17.6,5.4c1,0,2.2,0,3.3-0.1
				c0,0,0,0,0,0c14.5-0.9,19.4-3.4,19.6-3.5l0.5-0.3l-0.3-0.5c-0.1-0.2-13.4-19.7-40.1-10.5l-4,2.9l0,0.3
				C506.1,361.4,506,365.1,508.6,366.9z M512.2,359.6c0.6-0.2,1.2-0.4,1.7-0.5c0,0.4,0,0.8,0,1.2c0,4.7,3.8,8.5,8.5,8.5
				c4.7,0,8.5-3.8,8.5-8.5c0-0.7,0-1.4-0.2-2.1c3.2,0.7,5.8,1.8,7.9,3c4.6,2.6,7.4,5.9,8.3,7.1c-1.4,0.8-6.1,2.8-16.6,3.5
				c-11.3,0.7-15.8-3.1-18.3-5.1c-0.4-0.3-0.7-0.6-1-0.8c-1.6-1.1-1.8-3.3-1.8-4L512.2,359.6z"/>
			<path id="XMLID_516_" class="st8" d="M556.7,433.6c1,0,1.6,0,1.7-0.1l0-1.1c-7.7-0.8-12.4-3.3-13.8-7.4
				c-3.4-9.9,13-26.3,13.2-26.4l-0.8-0.8l-12.9,12.5l-0.1,0.1c-4.4,7.4-5.3,13.2-2.8,17.2C544.7,433,553,433.6,556.7,433.6z"/>
			<path id="XMLID_515_" class="st8" d="M633.3,361.2c-3.3-2.2-8.5-2.8-10.8-3l0,0c0,0-0.1,0-0.1,0c-0.2,0-0.4,0-0.6,0l0,0l-0.2,0
				c0,0-0.1,0-0.1,0c-0.1,0-0.1,0-0.1,0l0,0c-0.7,0-1.5,0.1-2.4,0.2c-8.5,0.7-11.8,2.7-15.7,5.7c-1.4,1.1-2,2.2-1.7,3.3
				c0.5,2.9,6,4.6,7.1,4.9c4.2,1.2,8.9,1.4,11.8,1.4c1.6,0,2.6-0.1,2.7-0.1l0-1.1c-0.1,0-8.4-0.5-14.3-1.9c-2.1-0.5-3.6-1.4-4.2-2.5
				c-0.5-0.8-0.4-1.6-0.4-1.8c1.2-1.9,3-3.4,5.3-4.3c-0.2,0.7-0.3,1.3-0.3,2c0,4.1,3.5,7.5,7.9,7.5s7.9-3.4,7.9-7.5
				c0-1.7-0.6-3.3-1.7-4.6c1.6,0.3,3.9,0.8,7,1.9c1.8,0.6,2.9,1.6,3.4,2.8c0.8,2-0.1,4.3-0.7,5.4c-1,1.9-5.8,2.6-7.7,2.7l0,1.1
				c0.5,0,1,0.1,1.4,0.1c6.5,0,8-3.3,8.1-3.4C635.8,368.1,636.9,363.6,633.3,361.2z"/>
			<path id="XMLID_513_" class="st8" d="M505.4,365.6L505.4,365.6c-4.5-3.2-4.7-2.8-5-2.4c-0.4,0.5-0.6,0.7,4.6,5.4
				c6.8,6.1,16.7,7.1,22.8,7.1c3,0,5.1-0.3,5.3-0.3l-0.1-1.1C514.8,375,505.5,365.7,505.4,365.6z"/>
			<path id="XMLID_512_" class="st8" d="M601.3,370.9l-1.6-2.2l0.7,2.7c0.1,0.4,2.5,9.3,22.8,9.3c3.5,0,7.5-0.3,12.2-0.9l-0.1-1.1
				C634.9,378.7,607.2,379.1,601.3,370.9z"/>
			<path id="XMLID_511_" class="st8" d="M535.5,386.2l0.4,1c0.1,0,13.6-4.9,18.4-17.7l-1-0.5C553.3,369.2,547.2,379.8,535.5,386.2z"
				/>
			<path id="XMLID_510_" class="st8" d="M640.4,260.8c-2.3-1.3-3.6-1.5-4.2-0.8c-1.3,1.4,1.7,6,3.1,7.9l0.1,0.1
				c5.5,5.7,16.6,36.5,16.7,36.9l1.1-0.3C656.8,302.9,648.7,265.5,640.4,260.8z"/>
			<path id="XMLID_509_" class="st8" d="M636.3,339.1l-0.8,0.2l0,0.3l-1-1.7l-1,0.5l0.2,0.5c-0.5-0.3-1.1-0.6-1.8-0.8
				c-0.5-0.1-1.2-0.3-1.5,0.3c-0.1,0.4,0,0.7,0.7,1.1c-0.6,0.4-1.8,0.8-3.4,0.8c-1.7,0-3.5-0.6-5.7-1.3c-1.4-0.4-2.9-0.9-4.6-1.4
				l-3-0.8c-1.6-0.4-2.7-0.4-2.8-0.3l-0.9,0.1c-0.7-0.2-1.3-0.4-1.7-0.4c-2-0.1-6,0.8-6.1,0.8l0.1,1.1l0,0c-0.7,0.3-1.5,0.6-2.4,1.1
				c-3.8,1.9-5.7,6.4-5.8,6.6l0,0.1c-0.1,0.5-0.5,4.7,1.7,5.9c0.4,0.2,0.8,0.3,1.3,0.3c1.2,0,2.8-0.7,4.7-2.3
				c7.7-6.1,12.3-5.2,12.3-5.2l0.1,0l0.1,0c0.2,0,16-2,26.1,6.2l1,0.8l-0.1-1.2c0-0.2-0.2-4.1-2.1-7.2c-0.6-1-0.9-1.5-1.5-1.2
				c-0.1,0-0.1,0-0.1,0.1c-0.5-1.4-1-2.7-1-2.7l-1.8-5.2L636.3,339.1z"/>
			<path id="XMLID_507_" class="st8" d="M544.7,334.8l-1.6-1l0.3,0.7c-0.5-0.4-1-0.7-1.5-1.1l-1.2-0.7l-3.4-3.7l2.5,4.5l-6.8-4.9
				l3.5,3.8c-0.4-0.2-0.8-0.3-1.1-0.5l-0.4,1c0.8,0.4,1.6,0.9,2.1,1.3c0,0-0.1,0-0.1,0c-2.8,0-5.2-1.1-5.2-1.1l-0.2,0.4
				c-1.3-0.4-3-0.9-4.6-1l-8.1-0.6l0.7,0.2c-2,0-4,0.8-4.1,0.8l-2.5,1l4.1,0.1c-2,0.5-4.4,1.1-6.1,1.5c-3.7,0.7-14.3,7.6-14.8,7.9
				l0.5,1c0.1,0,5.9-2.8,12-4.5c2.1-0.6,15.6-1.6,15.7-1.7c3.7,0.4,13.2,2.4,13.3,6.3l0,0.2l0.2,0.2c0.1,0.1,3.4,3,6.5,3
				c0.3,0,0.6,0,0.9-0.1c1.4-0.3,2.5-1.2,3.3-2.7C551.5,339.1,544.7,334.9,544.7,334.8z"/>
		</g>
	</g>
</g>
</svg>
