<svg xmlns="http://www.w3.org/2000/svg" viewBox="0 0 805.87 178.44"><defs><style>.cls-1{fill:#fff;}</style></defs><title>TiaMariaLetterWhite</title><g id="Layer_2" data-name="Layer 2"><g id="Layer_1-2" data-name="Layer 1"><path class="cls-1" d="M171.79,50a9,9,0,0,0-.44-7.69,110.33,110.33,0,0,0,14.27-1.53C230,34.15,214.38,7.58,209.11.56a1.65,1.65,0,0,0-2.63.22c-17.13,28.54-66.3,19.1-103,11,0,0-33.81-8.13-54.66-5.49-18.23,2-37.33,11.63-45.67,34A49.42,49.42,0,0,0,.33,63.57c1.31,10.54,7.9,21.51,26.34,23.05,0,0,26.57,2.2,20.2-25.69A20,20,0,0,1,28,67.52C17.45,65.76,11.3,57,15.26,43.59c0,0,9.66-38,86.06-12.73,16.24,5.27,32.27,9.88,50.71,11.19-3.95,26.57-40.83,58.62-48.74,84.31-7.9,26.34,10.76,32.71,15.59,33.15a1,1,0,0,0,.88-1.32C111.63,123.28,163.23,75.86,171.79,50Z"/><path class="cls-1" d="M194.18,43.37c-3.51,7.46.66,10.76.66,10.76,2.41,2,7.46,1.53,11.2-2.86,4-4.17,2.63-11.63-3.3-12.51C196.81,37.66,194.18,43.37,194.18,43.37Z"/><path class="cls-1" d="M287.92,87.28h-3.29a2.31,2.31,0,0,0-2,1.1c-3.51,5.27-19.76,28.76-27.66,28.54,0,0-5.71,0,1.76-17.35,8.12-19.32,26.12-38.42,31.39-43.69.66-.43.22-1.53-.66-1.53H271a5.06,5.06,0,0,0-3.74,1.75c-1.09,1.1-2.63,2.64-4.61,4.83-.22-3.51-1.31-8.12-6.8-10.53-9-4.18-33.59,7-48.74,36,0,0-1.09,2.06-2.46,5.26-5.77,8.25-18.65,25.45-25.42,25.26,0,0-8.78-.66,2.2-16.47,7.24-10.1,13.17-19.54,13.17-19.54C201.86,68.62,197,61.37,197,61.37a12.29,12.29,0,0,0-9.44-6.8,1.25,1.25,0,0,0-1.53.88C184.52,62.91,167,89,167,89a78.38,78.38,0,0,0-9.66,19.54c-3.3,10.53-.66,22.61,11.85,23,7.69.3,19.25-7.58,30.24-21.74-.93,8.19.88,15.88,9.93,18,11.2,2.42,20.42-7.24,26.35-16-.22,3.07-.88,19.76,9.22,19.76,11,0,29.86-15.81,43.69-43.25A.84.84,0,0,0,287.92,87.28ZM237.43,98.91c-1.32,1.54-2.64,3.52-4,5.27-4.61,5.93-10.53,11.86-15.8,11.2,0,0-6.81-2,13.39-31.39,17.34-25.47,26.78-23.06,24.59-14.71a45,45,0,0,1-3.29,7.46A248.15,248.15,0,0,1,237.43,98.91Z"/><path class="cls-1" d="M659.38,140.41c-28.32-1.32-54,9-73.1,15.59,0,0-63.67,24.15-83.65-3.74-10.76-17.78,24.59-66.08,24.59-66.08s3.95-6.15,7.9-12.07c8.56-13.18,21.08-39.3,2.86-47.21-23.28-9.88-66.31,70.48-80.58,99,3.52-26.35,33.37-57.08,38.64-81,5.71-25.47-11-22.84-11-22.84-13.84,1.76-34.69,34.69-51.82,63.67-13.83,23.05-23.71,40.4-30.29,51.38-10.54,17.12-12.08,14.27-12.3,13.17-4.39-25.47,45-85,58.62-106.26,16-25.69-8.78-35.79-8.78-35.79-7.25-3.73-18.88-2.63-27.88,0a79.93,79.93,0,0,0-20.86,9.44c-5.49,3.52-37.54,25.25-45.45,52.91-3.95,13.62,1.32,23.06,11,26.57,5.71,2.19,11.64,2.19,15.15,2.19a.83.83,0,0,0,.44-1.53c-5.49-3.52-15.59-14.27,4.61-42.81,27.66-39.52,53.13-44.13,59.72-41.28s4,14.05-45.45,77.72c-25.69,33.15-26.35,53.35-17.34,63,3.95,4.17,9.44,5.71,14.27,6.37,2.63.22,8.12.22,11.85-3.3,16.69-17.78,60.16-98.13,71.13-113.94,0,0,2-3.29,3.74-2.41,7.46,4.17-32.94,61.47-35.79,82.32-1.54,11.42,7.9,16,14.05,17.57a6.69,6.69,0,0,0,7.9-3.52c9.89-18.44,48.09-86.72,62.14-95.5,0,0,1.53-1.09,2.41-.66,1.32,1.1,2.2,6.81-15.81,34.69-37.76,56.86-14.71,83.43-14.71,83.43,25.47,35.35,99.9,10.32,99.9,10.32,33.15-9.44,71.13-14.93,87.81,8.12a1.24,1.24,0,0,0,2,0C689.46,171.36,705.27,142.38,659.38,140.41Z"/><path class="cls-1" d="M590.44,45.35c14,3.07,23.93-7.69,22.4-10.54-2-4.61-8.56-1.32-8.56-1.32-3.08,1.54-5,4.17-8.79,6.59-3.51,2.19-6.14.66-7.46,2C586.05,44.25,590.44,45.35,590.44,45.35Z"/><path class="cls-1" d="M541.92,127.89c11.2,2.42,20.42-7.24,26.35-16-.22,3.07-.88,19.76,9.22,19.76,7.33,0,18.19-7.06,28.71-19.92-1.15,9.11,1.87,14.23,5.54,17.06a7,7,0,0,0,4.39,1.54c2.85.22,5.93-.44,8.12-4.61a285.67,285.67,0,0,1,13-25.47c8.35-13.83,19.54-29.42,25.47-29.86a2,2,0,0,1,2.2,1.32c.65,1.54.43,6.15-2.64,8.78a24.86,24.86,0,0,1-4.39,2.86.68.68,0,0,0,0,1.31c9.44,3.74,18.66,2.42,25.91-9,3.29-6.58,4.83-14.27-.44-18.88C668.82,43.81,644.67,78.5,644.67,78.5a308.48,308.48,0,0,0-19.76,30.73,115,115,0,0,1,7.68-15.8c4.61-8.35,11-17.57,11-17.57,7-10.75,2.63-19.32,2.63-19.32a11.83,11.83,0,0,0-8.34-7,1.19,1.19,0,0,0-1.31.88c-1.32,7.46-18.89,34-18.89,34-1.18,1.8-2.2,3.44-3.1,5-4.58,6.74-19.5,27.71-27,27.51,0,0-5.71,0,1.76-17.35,8.12-19.32,26.12-38.42,31.39-43.69.66-.43.22-1.53-.66-1.53H603.62a5.06,5.06,0,0,0-3.74,1.75c-1.09,1.1-2.63,2.64-4.61,4.83-.22-3.51-1.31-8.12-6.8-10.53-9-4.18-33.59,7-48.74,36C539.73,86.4,520.41,122.85,541.92,127.89ZM563.66,84C581,58.52,590.44,60.93,588.25,69.28a44.53,44.53,0,0,1-3.3,7.46A245.48,245.48,0,0,1,570,98.91c-1.32,1.54-2.64,3.52-4,5.27-4.61,5.93-10.53,11.86-15.8,11.2C550.27,115.38,543.46,113.41,563.66,84Z"/><path class="cls-1" d="M712.07,54.13c2.41,2,7.46,1.53,11.19-2.86,4-4.17,2.64-11.63-3.29-12.51-5.93-1.1-8.56,4.61-8.56,4.61C707.9,50.83,712.07,54.13,712.07,54.13Z"/><path class="cls-1" d="M805.15,87.28h-3.29a2.31,2.31,0,0,0-2,1.1c-3.51,5.27-19.76,28.76-27.66,28.54,0,0-5.71,0,1.75-17.35,8.13-19.32,26.13-38.42,31.4-43.69.66-.43.22-1.53-.66-1.53H788.24a5.06,5.06,0,0,0-3.73,1.75c-1.1,1.1-2.63,2.64-4.61,4.83-.22-3.51-1.32-8.12-6.8-10.53-9-4.18-33.59,7-48.74,36,0,0-1.09,2.06-2.46,5.26-5.77,8.25-18.65,25.45-25.42,25.26,0,0-8.78-.66,2.19-16.47,7.25-10.1,13.18-19.54,13.18-19.54,7.24-12.29,2.41-19.54,2.41-19.54a12.29,12.29,0,0,0-9.44-6.8,1.25,1.25,0,0,0-1.54.88C701.75,62.91,684.18,89,684.18,89a78.77,78.77,0,0,0-9.66,19.54c-3.29,10.53-.65,22.61,11.86,23,7.69.3,19.24-7.58,30.23-21.74-.92,8.19.88,15.88,9.94,18,11.2,2.42,20.42-7.24,26.35-16-.22,3.07-.88,19.76,9.22,19.76,11,0,29.86-15.81,43.69-43.25A.84.84,0,0,0,805.15,87.28Zm-50.5,11.63c-1.31,1.54-2.63,3.52-3.95,5.27-4.61,5.93-10.54,11.86-15.8,11.2,0,0-6.81-2,13.39-31.39,17.34-25.47,26.78-23.06,24.59-14.71a44.53,44.53,0,0,1-3.3,7.46A243.84,243.84,0,0,1,754.65,98.91Z"/><path class="cls-1" d="M594.93,139.2c2.11-.73,4.29-1.47,6.51-2.19-.41-.41-.83-.84-1.25-1.31A59.1,59.1,0,0,1,594.93,139.2Z"/></g></g></svg>